<svg width="11" height="17" viewBox="0 0 11 17" fill="none" xmlns="http://www.w3.org/2000/svg">
<path d="M0.940998 0.920946C0.805847 1.05351 0.698623 1.21098 0.625465 1.38433C0.552306 1.55768 0.514648 1.7435 0.514648 1.93118C0.514648 2.11885 0.552306 2.30468 0.625465 2.47802C0.698623 2.65137 0.805847 2.80884 0.940998 2.9414L6.59759 8.50125L0.940998 14.0611C0.668406 14.329 0.515266 14.6924 0.515266 15.0713C0.515266 15.4502 0.668406 15.8136 0.940998 16.0816C1.21359 16.3495 1.5833 16.5 1.96881 16.5C2.35431 16.5 2.72402 16.3495 2.99661 16.0816L9.6883 9.50431C9.82345 9.37175 9.93068 9.21428 10.0038 9.04093C10.077 8.86758 10.1146 8.68175 10.1146 8.49408C10.1146 8.30641 10.077 8.12058 10.0038 7.94724C9.93068 7.77389 9.82345 7.61642 9.6883 7.48385L2.99661 0.906617C2.44262 0.362096 1.50957 0.362096 0.940998 0.920946Z" fill="white"/>
</svg>
