<svg width="343" height="407" viewBox="0 0 343 407" fill="none" xmlns="http://www.w3.org/2000/svg">
<g clip-path="url(#clip0_770_6621)">
<rect width="343" height="407" rx="20" fill="#FCC473"/>
<path fill-rule="evenodd" clip-rule="evenodd" d="M-86.5716 249.934C-123.29 250.375 -133.437 250.794 -133.223 251.86C-132.888 253.532 -134.285 253.634 -135.867 252.053C-136.511 251.41 -138.679 251.042 -140.685 251.235C-143.846 251.541 -144.452 252.096 -145.238 255.404C-146.402 260.303 -147.671 319.443 -146.59 318.42C-146.142 317.996 -145.803 310.464 -145.835 301.681C-145.898 284.395 -144.184 274.349 -143.798 289.75C-143.377 306.601 -144.043 320.262 -145.323 321.053C-146.248 321.625 -146.221 322.177 -145.218 323.179C-144.167 324.229 -143.863 340.142 -143.863 394.061C-143.863 461.685 -143.805 463.619 -141.752 464.717C-140.591 465.337 -138.244 465.845 -136.535 465.845C-134.111 465.845 -133.167 466.539 -132.236 469C-131.045 472.155 -131.044 472.155 -118.084 473.089C-100.78 474.336 113.458 474.289 142.88 473.032L166.082 472.04L166.953 468.671C167.736 465.64 168.337 465.24 172.896 464.71C175.685 464.385 178.323 463.764 178.758 463.329C179.193 462.895 179.77 440.958 180.038 414.58C180.443 374.963 180.788 366.622 182.021 366.622C182.843 366.622 183.515 366.131 183.515 365.531C183.515 364.932 184.664 364.441 186.067 364.441C189.044 364.441 190.851 361.204 191.718 354.319C192.196 350.528 192.1 350.171 191.173 352.289C190.427 353.991 189.469 354.633 188.329 354.197C187.383 353.834 186.404 353.537 186.154 353.537C185.902 353.537 185.697 352.281 185.697 350.747C185.697 349.165 185.225 348.248 184.606 348.63C184.006 349.001 183.515 350.256 183.515 351.421C183.515 352.585 182.827 353.537 181.986 353.537C180.949 353.537 180.491 352.324 180.564 349.769C180.646 346.87 181.187 345.908 182.911 345.601C184.917 345.245 184.837 345.072 182.151 343.945C179.034 342.639 178.292 339.212 180.119 334.558C180.567 333.415 180.625 330.44 180.247 327.947C179.775 324.845 180.01 322.993 180.991 322.078C182.811 320.378 182.858 317.468 181.06 317.827C180.101 318.019 179.599 315.932 179.375 310.821C179.059 303.671 179.005 303.551 176.262 304.047C174.728 304.325 172.747 303.953 171.862 303.219C170.579 302.154 170.057 302.201 169.285 303.45C168.472 304.765 159.565 305.103 113.699 305.561L59.0819 306.106L61.6366 309.922C65.7244 316.029 65.9405 317.469 63.1436 319.958C61.7632 321.188 50.5919 328.086 38.3197 335.289C18.1074 347.151 15.4676 348.404 10.2776 348.594C7.12711 348.71 4.54848 348.454 4.54848 348.025C4.54848 347.596 15.1741 340.953 28.1611 333.264C48.4989 321.222 51.9887 318.766 53.3277 315.565C54.1822 313.521 54.5827 311.048 54.216 310.067C52.9174 306.599 46.6328 296.838 45.6976 296.838C44.7668 296.838 34.7621 302.728 -15.6398 332.954L-40.7388 348.006L-58.6125 348.316L-76.4873 348.626L-78.2551 345.926C-79.2285 344.441 -80.9036 342.336 -81.9796 341.249C-84.4677 338.732 -93.7139 323.165 -94.433 320.281C-96.3318 312.669 -96.3013 312.58 -90.7642 309.267L-85.4804 306.106L-108.839 305.812C-129.304 305.553 -132.363 305.288 -133.546 303.671C-134.696 302.101 -135.161 302.047 -136.678 303.304C-137.658 304.116 -138.791 304.451 -139.195 304.046C-140.327 302.916 -140.876 271.757 -139.848 267.053L-138.938 262.892L-75.2236 262.376C-14.0117 261.879 -11.4025 261.776 -8.78889 259.722C-7.29387 258.546 -5.38963 257.584 -4.55809 257.584C-3.72765 257.584 -1.10207 256.358 1.27469 254.859C3.65146 253.359 6.03696 252.133 6.57603 252.133C7.11403 252.133 8.166 251.397 8.91351 250.497C10.4085 248.697 14.5466 248.722 -86.5716 249.934ZM26.3736 249.359C26.3736 249.913 40.3351 257.374 42.5133 260.23C43.8009 261.92 40.1257 261.845 101.125 262.141C137.737 262.319 168.285 262.086 169.011 261.623C169.737 261.161 171.21 261.254 172.285 261.829C173.36 262.406 175.099 263.143 176.149 263.468C177.787 263.974 178.074 265.576 178.168 274.724C178.239 281.745 178.575 284.458 179.15 282.663C179.733 280.845 180.071 283.389 180.166 290.296C180.316 301.296 181.612 301.822 182.85 291.386C183.242 288.088 183.853 283.303 184.209 280.755C184.793 276.561 184.634 276.121 182.548 276.121C180.416 276.121 180.241 275.533 180.241 268.365V260.608L176.967 261.088C175.167 261.352 173.694 261.22 173.694 260.793C173.694 260.368 172.711 259.763 171.511 259.449C170.186 259.103 169.263 257.876 169.163 256.324C169.071 254.919 168.948 253.032 168.89 252.133C168.797 250.724 163.324 250.404 129.498 249.828C78.7693 248.963 26.3736 248.724 26.3736 249.359ZM-140.295 260.521C-139.234 260.798 -137.76 260.779 -137.022 260.481C-136.283 260.182 -137.151 259.956 -138.952 259.978C-140.753 260 -141.357 260.244 -140.295 260.521ZM18.2438 272.387C14.073 274.527 3.51505 280.48 -5.21829 285.619C-13.9505 290.757 -29.4442 299.877 -39.6475 305.886C-49.8508 311.894 -63.0004 319.953 -68.8681 323.795L-79.5385 330.781L-77.0897 335.134C-75.7431 337.527 -74.0287 339.995 -73.279 340.616C-71.6618 341.957 -71.9706 342.128 -24.3699 313.75C-5.16374 302.3 15.8299 289.799 22.2814 285.971C28.7329 282.144 34.0124 278.475 34.0124 277.82C34.0124 275.866 28.5856 268.488 27.1528 268.494C26.4238 268.497 22.4156 270.249 18.2438 272.387ZM-145.559 277.306C-145.961 277.958 -145.745 279.038 -145.077 279.705C-144.186 280.596 -143.863 280.281 -143.863 278.52C-143.863 275.886 -144.429 275.481 -145.559 277.306ZM-72.5839 292.037C-74.3615 293.423 -74.0014 293.554 -69.1115 293.302C-66.1105 293.148 -63.6552 292.531 -63.6552 291.931C-63.6552 290.232 -70.3686 290.312 -72.5839 292.037ZM52.0182 292.476C52.3892 293.076 54.6274 293.567 56.9933 293.567C59.3591 293.567 61.2939 293.076 61.2939 292.476C61.2939 291.877 59.0546 291.386 56.3189 291.386C53.2797 291.386 51.6057 291.81 52.0182 292.476ZM135.176 293.163C134.754 293.585 134.408 295.565 134.408 297.565V301.199H144.295H154.183L153.844 297.11L153.505 293.022L144.725 292.709C139.895 292.536 135.599 292.74 135.176 293.163ZM-76.2047 298.473C-76.2047 299.373 -76.0115 300.109 -75.7758 300.109C-75.5401 300.109 -75.0643 299.373 -74.7184 298.473C-74.3735 297.574 -74.5667 296.838 -75.1472 296.838C-75.7289 296.838 -76.2047 297.574 -76.2047 298.473ZM7.36719 298.872C6.89685 299.632 6.80736 300.548 7.16748 300.908C8.14415 301.884 9.20924 300.449 8.68108 298.868C8.31223 297.76 8.05467 297.76 7.36719 298.872ZM12.7329 300.109C13.1039 300.709 13.8984 301.199 14.4986 301.199C15.0988 301.199 15.2865 300.709 14.9154 300.109C14.5444 299.509 13.75 299.019 13.1498 299.019C12.5496 299.019 12.3619 299.509 12.7329 300.109ZM5.91254 303.921C4.00829 306.082 4.18944 307.03 7.0038 309.631C10.2536 312.635 18.9149 311.77 16.9757 308.635C16.5894 308.01 16.9495 307.052 17.7767 306.508C19.0033 305.701 18.8909 305.222 17.1623 303.905C14.4909 301.868 7.71312 301.878 5.91254 303.921ZM182.51 308.377C182.562 309.648 182.821 309.906 183.169 309.037C183.484 308.25 183.445 307.309 183.083 306.947C182.72 306.585 182.463 307.228 182.51 308.377ZM-126.607 309.577C-125.82 309.892 -124.878 309.853 -124.516 309.491C-124.153 309.129 -124.797 308.871 -125.947 308.918C-127.219 308.97 -127.477 309.229 -126.607 309.577ZM-119.561 309.588C-118.5 309.865 -117.026 309.846 -116.288 309.547C-115.549 309.248 -116.418 309.023 -118.218 309.045C-120.019 309.066 -120.623 309.311 -119.561 309.588ZM-10.2872 314.052C-13.8316 316.322 -19.0773 319.54 -21.9451 321.202L-27.1581 324.225L-24.6733 327.321L-22.1874 330.419L-17.8223 327.925C-15.4216 326.553 -10.1431 323.614 -6.09129 321.393C-2.03946 319.172 1.27469 316.969 1.27469 316.498C1.27469 316.026 0.538101 315.031 -0.362198 314.284C-1.26248 313.537 -1.99908 312.25 -1.99908 311.425C-1.99908 309.15 -3.26387 309.55 -10.2872 314.052ZM161.716 315.47C159.629 315.922 157.052 317.365 155.987 318.679C152.533 322.941 154.271 334.714 157.91 331.697C158.956 330.829 160.386 330.754 162.471 331.456C165.069 332.331 165.864 332.07 167.961 329.65C170.347 326.9 169.335 324.745 166.832 327.246C166.165 327.912 164.243 328.459 162.563 328.459C160.102 328.459 159.507 327.97 159.507 325.951C159.507 320.934 163.51 319.374 167.121 322.982C168.378 324.238 170.009 324.858 171.03 324.467C172.469 323.915 172.684 324.407 172.24 327.223C171.935 329.152 172.135 330.382 172.696 330.036C174.026 329.214 173.969 323.375 172.604 320.83C170.483 316.87 165.833 314.581 161.716 315.47ZM-133.769 316.455C-135.634 317.237 -136.224 318.379 -136.224 321.202C-136.224 323.248 -135.609 325.403 -134.86 325.994C-134.109 326.585 -129.889 327.171 -125.482 327.295C-119.2 327.472 -117.018 327.114 -115.387 325.64C-112.982 323.466 -112.728 320.895 -114.672 318.405C-116.316 316.299 -130.051 314.895 -133.769 316.455ZM163.054 317.827C163.304 318.578 163.958 319.233 164.508 319.284C167.007 319.52 169.328 321.211 169.328 322.796C169.328 324.229 169.567 324.28 170.693 323.089C171.784 321.933 171.784 321.543 170.693 321.144C169.943 320.87 169.328 319.897 169.328 318.983C169.328 317.97 168.703 317.561 167.727 317.935C166.846 318.273 165.834 318.08 165.48 317.507C164.53 315.972 162.523 316.237 163.054 317.827ZM-133.029 319.883C-134.17 322.013 -134.052 322.155 -131.645 321.552C-129.821 321.094 -128.473 321.523 -127.253 322.948C-126.284 324.079 -125.777 325.29 -126.129 325.64C-126.479 325.991 -125.717 326.278 -124.436 326.278C-122.752 326.278 -122.291 325.796 -122.774 324.539C-123.327 323.098 -122.72 322.865 -119.22 323.176C-115.888 323.472 -114.919 323.15 -114.619 321.644C-114.339 320.236 -114.951 319.736 -116.956 319.736C-118.451 319.736 -119.866 320.315 -120.103 321.022C-120.382 321.86 -121.27 321.992 -122.649 321.398C-124.587 320.565 -124.603 320.45 -122.843 320.03C-119.344 319.195 -122.082 317.555 -126.974 317.555C-130.766 317.555 -132.045 318.047 -133.029 319.883ZM158.789 319.135C159.195 320.191 158.872 320.514 157.815 320.109C156.838 319.735 156.233 320.173 156.233 321.255C156.233 323.567 157.655 323.473 159.884 321.012C162.155 318.506 162.169 317.555 159.936 317.555C158.854 317.555 158.415 318.159 158.789 319.135ZM83.1191 319.736C83.1191 320.335 84.3468 320.826 85.8472 320.826C87.3477 320.826 88.5754 320.335 88.5754 319.736C88.5754 319.136 87.3477 318.645 85.8472 318.645C84.3468 318.645 83.1191 319.136 83.1191 319.736ZM90.7579 319.736C90.7579 320.335 91.7105 320.826 92.876 320.826C94.0415 320.826 95.2975 320.335 95.6685 319.736C96.0516 319.117 95.1338 318.645 93.5504 318.645C92.015 318.645 90.7579 319.136 90.7579 319.736ZM155.142 325.188C155.142 325.787 155.633 326.278 156.233 326.278C156.834 326.278 157.325 325.787 157.325 325.188C157.325 324.588 156.834 324.097 156.233 324.097C155.633 324.097 155.142 324.588 155.142 325.188ZM-43.8434 329.363C-46.0859 331.839 -46.1645 335.961 -44.0267 339.011C-42.8143 340.741 -41.3652 341.285 -38.2976 341.161C-36.0387 341.072 -34.3462 340.586 -34.5371 340.081C-34.727 339.576 -34.033 338.543 -32.9952 337.786C-31.9574 337.027 -31.3714 335.723 -31.6922 334.886C-32.0142 334.05 -32.3874 332.875 -32.5227 332.275C-33.687 327.128 -40.2826 325.432 -43.8434 329.363ZM156.233 329.004C156.233 329.903 156.724 330.639 157.325 330.639C157.925 330.639 158.416 329.903 158.416 329.004C158.416 328.104 157.925 327.368 157.325 327.368C156.724 327.368 156.233 328.104 156.233 329.004ZM168.933 332.275C168.589 333.174 168.782 333.91 169.362 333.91C169.944 333.91 170.42 333.174 170.42 332.275C170.42 331.375 170.227 330.639 169.991 330.639C169.755 330.639 169.279 331.375 168.933 332.275ZM164.759 334.655C165.546 334.97 166.488 334.931 166.85 334.569C167.213 334.207 166.569 333.95 165.418 333.997C164.147 334.049 163.889 334.307 164.759 334.655ZM115.311 355.638C104.747 357.323 91.0307 364.878 84.2354 372.756C81.755 375.632 81.4975 375.712 81.1057 373.729C80.5993 371.165 88.9824 363.162 91.7051 363.611C92.7953 363.79 93.4435 363.09 93.4598 361.715C93.498 358.54 91.6375 357.715 89.9296 360.151C89.1166 361.312 87.9282 362.26 87.2888 362.26C86.5718 362.26 86.6799 361.527 87.5681 360.352C88.3615 359.302 86.8108 360.526 84.1209 363.071C79.0661 367.854 78.1844 371.112 80.3091 377.148C81.1308 379.481 81.169 379.476 85.9716 376.236C88.7794 374.344 91.4596 371.415 92.3642 369.254C93.9247 365.521 96.7576 363.855 95.4492 367.439C94.7912 369.243 94.8698 369.245 96.8842 367.484C98.0573 366.458 101.947 364.269 105.527 362.617C111.449 359.884 113.34 359.589 126.457 359.341C134.726 359.185 141.15 359.511 141.519 360.107C141.888 360.703 141.325 360.845 140.194 360.438C136.675 359.174 139.205 360.894 143.451 362.652C145.725 363.594 147.292 363.89 146.934 363.311C145.973 361.759 147.741 362.098 150.167 363.931C151.333 364.81 153.074 365.531 154.038 365.531C155.001 365.531 157.709 367.494 160.053 369.893C162.397 372.292 163.93 374.254 163.459 374.254C162.988 374.254 163.674 376.095 164.982 378.343C167.235 382.215 167.241 382.288 165.095 379.706C163.849 378.207 162.818 376.73 162.805 376.425C162.792 376.119 161.752 375.227 160.496 374.443C158.626 373.277 158.82 373.902 161.553 377.873C166.121 384.507 168.842 391.812 170.34 401.468C171.034 405.94 171.826 409.824 172.101 410.1C172.939 410.936 172.566 399.077 171.609 394.426C170.219 387.673 169.97 386.948 168.503 385.373C166.869 383.614 167.298 380.633 170.001 374.984L172 370.806L165.029 364.08C160.114 359.338 157.901 357.821 157.527 358.939C157.233 359.811 156.134 361.448 155.083 362.575C153.553 364.215 152.986 364.334 152.247 363.169C151.738 362.37 150.586 361.629 149.686 361.523C148.786 361.417 144.984 360.05 141.236 358.484C133.714 355.341 123.919 354.266 115.311 355.638ZM82.5047 365.804L79.2997 369.348L82.8463 366.145C84.7963 364.384 86.3929 362.789 86.3929 362.601C86.3929 361.759 85.4926 362.501 82.5047 365.804ZM151.868 367.068C151.868 367.275 152.605 368.055 153.505 368.802C154.449 369.585 155.142 369.691 155.142 369.052C155.142 368.444 154.406 367.663 153.505 367.317C152.605 366.973 151.868 366.86 151.868 367.068ZM-55.4708 381.959C-55.4708 384.454 -53.1071 387.339 -51.0643 387.339C-49.8835 387.339 -46.5857 385.876 -43.7365 384.088L-38.5563 380.838L-47.0135 380.817C-52.2854 380.804 -55.4708 381.234 -55.4708 381.959ZM3.6329 391.208C3.83588 392.236 5.00789 393.74 6.23555 394.554C8.30458 395.924 8.465 395.813 8.41808 393.049C8.37988 390.769 7.76549 389.98 5.81541 389.704C3.89044 389.431 3.35353 389.801 3.6329 391.208ZM-21.2271 392.193C-22.1656 394.635 -20.7284 396.062 -17.3291 396.062C-14.2157 396.062 -12.8287 394.495 -13.7094 391.973C-14.3729 390.072 -20.4817 390.252 -21.2271 392.193ZM2.36595 402.578C2.36595 403.262 1.87489 403.52 1.27469 403.149C0.6745 402.778 0.183441 403.029 0.183441 403.706C0.183441 405.202 4.6194 404.679 4.67397 403.176C4.6947 402.592 4.18399 401.938 3.53905 401.723C2.89412 401.508 2.36595 401.892 2.36595 402.578ZM76.2038 407.026C75.3133 413.547 76.5813 421.34 79.4295 426.843C81.0719 430.016 81.049 432.259 79.3248 436.951C78.8239 438.315 79.3117 438.007 80.6277 436.128L82.7317 433.127L85.3802 435.972C88.3986 439.214 97.3054 445.598 97.3054 444.52C97.3054 444.127 96.0647 442.832 94.5489 441.64C90.6989 438.614 82.0125 425.014 80.1116 419.037C79.2396 416.296 78.1898 411.109 77.7795 407.511L77.032 400.968L76.2038 407.026ZM116.087 403.259C115.312 404.098 115.161 404.785 115.75 404.785C116.883 404.785 118.523 402.711 117.876 402.096C117.666 401.896 116.861 402.42 116.087 403.259ZM170.506 415.234C170.558 416.504 170.817 416.762 171.165 415.893C171.48 415.106 171.441 414.165 171.079 413.803C170.717 413.441 170.459 414.084 170.506 415.234ZM164.405 427.704C158.878 436.451 152.734 442.061 144.23 446.125C136.285 449.921 135.677 450.034 123.496 450.003C112.061 449.974 110.42 449.708 105.028 447.011C101.773 445.385 98.9019 444.26 98.6477 444.514C97.7692 445.391 107.152 449.541 113.944 451.28C126.946 454.608 142.343 451.221 153.235 442.637C159.993 437.311 161.862 435.259 165.662 428.996C169.36 422.899 168.196 421.702 164.405 427.704ZM165.208 435.69C163.941 437.837 160.234 441.657 156.971 444.18L151.037 448.767L154.978 450.774L158.919 452.782L165.321 446.384L171.723 439.988L169.618 435.887L167.513 431.788L165.208 435.69ZM83.1191 439.509C83.1191 441.818 85.5057 446.76 88.2993 450.235C90.1828 452.579 90.269 452.585 93.9531 450.651L97.6939 448.687L93.1346 445.672C90.6269 444.014 88.5754 442.232 88.5754 441.712C88.5754 441.192 87.6085 440.767 86.4267 440.767C84.9655 440.767 84.4799 440.243 84.9066 439.131C85.2525 438.232 84.9917 437.496 84.3271 437.496C83.6625 437.496 83.1191 438.402 83.1191 439.509ZM-38.3664 473.205C-10.6528 473.367 35.0164 473.367 63.1207 473.205C91.2249 473.043 68.5508 472.911 12.7329 472.911C-43.085 472.911 -66.08 473.043 -38.3664 473.205Z" fill="#EDA63E"/>
<path opacity="0.5" fill-rule="evenodd" clip-rule="evenodd" d="M183.428 153.066C146.71 152.625 136.563 152.206 136.777 151.14C137.112 149.468 135.715 149.366 134.133 150.947C133.489 151.59 131.321 151.958 129.315 151.765C126.154 151.459 125.548 150.904 124.762 147.596C123.598 142.697 122.329 83.5566 123.41 84.5804C123.858 85.0035 124.197 92.5358 124.165 101.319C124.102 118.605 125.816 128.651 126.202 113.25C126.623 96.399 125.957 82.7377 124.677 81.9472C123.752 81.3747 123.779 80.823 124.782 79.821C125.833 78.7709 126.137 62.8581 126.137 8.93921C126.137 -58.6845 126.195 -60.6189 128.248 -61.7169C129.409 -62.3373 131.756 -62.8454 133.465 -62.8454C135.889 -62.8454 136.833 -63.5389 137.764 -65.9999C138.955 -69.1554 138.956 -69.1554 151.916 -70.0887C169.22 -71.3361 383.458 -71.2892 412.88 -70.032L436.082 -69.0398L436.953 -65.6706C437.736 -62.6404 438.337 -62.2402 442.896 -61.7103C445.685 -61.3854 448.323 -60.7639 448.758 -60.3288C449.193 -59.8949 449.77 -37.9577 450.038 -11.5805C450.443 28.0371 450.788 36.3784 452.021 36.3784C452.843 36.3784 453.515 36.8691 453.515 37.4688C453.515 38.0685 454.664 38.5591 456.067 38.5591C459.044 38.5591 460.851 41.7964 461.718 48.6811C462.196 52.4723 462.1 52.8288 461.173 50.7113C460.427 49.0093 459.469 48.367 458.329 48.8032C457.383 49.1663 456.404 49.4629 456.154 49.4629C455.902 49.4629 455.697 50.719 455.697 52.2531C455.697 53.8352 455.225 54.7522 454.606 54.3695C454.006 53.9988 453.515 52.7438 453.515 51.5793C453.515 50.4147 452.827 49.4629 451.986 49.4629C450.949 49.4629 450.491 50.6764 450.564 53.2312C450.646 56.1305 451.187 57.0922 452.911 57.3986C454.917 57.7551 454.837 57.9285 452.151 59.0548C449.034 60.3611 448.292 63.7881 450.119 68.4419C450.567 69.5846 450.625 72.5602 450.247 75.0528C449.775 78.1549 450.01 80.0074 450.991 80.9222C452.811 82.6221 452.858 85.5323 451.06 85.1725C450.101 84.9806 449.599 87.0676 449.375 92.1792C449.059 99.3288 449.005 99.4487 446.262 98.9526C444.728 98.6746 442.747 99.0475 441.862 99.7813C440.579 100.846 440.057 100.799 439.285 99.5501C438.472 98.2352 429.565 97.8971 383.699 97.4392L329.082 96.894L331.637 93.0777C335.724 86.9705 335.941 85.5312 333.144 83.0419C331.763 81.812 320.592 74.9143 308.32 67.7113C288.107 55.8492 285.468 54.5963 280.278 54.4055C277.127 54.2899 274.548 54.5462 274.548 54.9747C274.548 55.4043 285.174 62.0468 298.161 69.7361C318.499 81.7782 321.989 84.2337 323.328 87.435C324.182 89.4795 324.583 91.9524 324.216 92.9327C322.917 96.4011 316.633 106.162 315.698 106.162C314.767 106.162 304.762 100.272 254.36 70.0458L229.261 54.9943L211.388 54.6836L193.513 54.3739L191.745 57.0736C190.771 58.5587 189.096 60.6642 188.02 61.7513C185.532 64.2679 176.286 79.8351 175.567 82.7192C173.668 90.3311 173.699 90.4205 179.236 93.733L184.52 96.894L161.161 97.1884C140.696 97.4468 137.637 97.7118 136.454 99.3288C135.304 100.899 134.839 100.953 133.322 99.6963C132.342 98.8839 131.209 98.5492 130.805 98.9537C129.673 100.084 129.124 131.243 130.152 135.947L131.062 140.108L194.776 140.624C255.988 141.121 258.598 141.224 261.211 143.278C262.706 144.454 264.61 145.416 265.442 145.416C266.272 145.416 268.898 146.642 271.275 148.141C273.651 149.641 276.037 150.867 276.576 150.867C277.114 150.867 278.166 151.603 278.914 152.503C280.409 154.303 284.547 154.278 183.428 153.066ZM296.374 153.641C296.374 153.087 310.335 145.626 312.513 142.77C313.801 141.08 310.126 141.155 371.125 140.859C407.737 140.681 438.285 140.914 439.011 141.377C439.737 141.839 441.21 141.746 442.285 141.171C443.36 140.594 445.099 139.857 446.149 139.532C447.787 139.026 448.074 137.424 448.168 128.276C448.239 121.255 448.575 118.542 449.15 120.337C449.733 122.155 450.071 119.611 450.166 112.704C450.316 101.704 451.612 101.178 452.85 111.614C453.242 114.912 453.853 119.697 454.209 122.245C454.793 126.439 454.634 126.879 452.548 126.879C450.416 126.879 450.241 127.467 450.241 134.635V142.392L446.967 141.912C445.167 141.648 443.694 141.78 443.694 142.207C443.694 142.632 442.711 143.237 441.511 143.551C440.186 143.897 439.263 145.124 439.163 146.676C439.071 148.081 438.948 149.968 438.89 150.867C438.797 152.276 433.324 152.596 399.498 153.172C348.769 154.037 296.374 154.276 296.374 153.641ZM129.705 142.479C130.766 142.202 132.24 142.221 132.978 142.519C133.717 142.818 132.849 143.044 131.048 143.022C129.247 143 128.643 142.756 129.705 142.479ZM288.244 130.613C284.073 128.473 273.515 122.52 264.782 117.381C256.049 112.243 240.556 103.123 230.352 97.1143C220.149 91.1063 207 83.0474 201.132 79.2049L190.462 72.2189L192.91 67.8661C194.257 65.4728 195.971 63.0053 196.721 62.3837C198.338 61.0426 198.029 60.8725 245.63 89.2505C264.836 100.7 285.83 113.201 292.281 117.029C298.733 120.856 304.012 124.525 304.012 125.18C304.012 127.134 298.586 134.512 297.153 134.506C296.424 134.503 292.416 132.751 288.244 130.613ZM124.441 125.694C124.039 125.042 124.255 123.962 124.923 123.295C125.814 122.404 126.137 122.719 126.137 124.48C126.137 127.114 125.571 127.519 124.441 125.694ZM197.416 110.963C195.638 109.577 195.999 109.446 200.889 109.698C203.889 109.852 206.345 110.469 206.345 111.069C206.345 112.768 199.631 112.688 197.416 110.963ZM322.018 110.524C322.389 109.924 324.627 109.433 326.993 109.433C329.359 109.433 331.294 109.924 331.294 110.524C331.294 111.123 329.055 111.614 326.319 111.614C323.28 111.614 321.606 111.19 322.018 110.524ZM405.176 109.837C404.754 109.415 404.408 107.435 404.408 105.435V101.801H414.295H424.183L423.844 105.89L423.505 109.978L414.725 110.291C409.895 110.464 405.599 110.26 405.176 109.837ZM193.795 104.527C193.795 103.627 193.988 102.891 194.224 102.891C194.46 102.891 194.936 103.627 195.282 104.527C195.626 105.426 195.433 106.162 194.853 106.162C194.271 106.162 193.795 105.426 193.795 104.527ZM277.367 104.128C276.897 103.368 276.807 102.452 277.167 102.092C278.144 101.116 279.209 102.551 278.681 104.132C278.312 105.24 278.055 105.24 277.367 104.128ZM282.733 102.891C283.104 102.291 283.898 101.801 284.499 101.801C285.099 101.801 285.286 102.291 284.915 102.891C284.544 103.491 283.75 103.981 283.15 103.981C282.55 103.981 282.362 103.491 282.733 102.891ZM275.913 99.0791C274.008 96.918 274.189 95.9705 277.004 93.3688C280.254 90.3649 288.915 91.2295 286.976 94.3654C286.589 94.9902 286.95 95.9476 287.777 96.4916C289.003 97.2985 288.891 97.7783 287.162 99.0955C284.491 101.132 277.713 101.122 275.913 99.0791ZM452.51 94.6228C452.562 93.3525 452.821 93.0941 453.169 93.9631C453.484 94.7503 453.445 95.6913 453.083 96.0533C452.72 96.4153 452.463 95.772 452.51 94.6228ZM143.393 93.4234C144.18 93.1082 145.122 93.1475 145.484 93.5095C145.847 93.8715 145.203 94.1288 144.053 94.0819C142.781 94.0296 142.523 93.7712 143.393 93.4234ZM150.439 93.4124C151.5 93.1355 152.974 93.154 153.712 93.4528C154.451 93.7516 153.582 93.9773 151.782 93.9555C149.981 93.9336 149.377 93.6894 150.439 93.4124ZM259.713 88.9485C256.168 86.6783 250.923 83.4595 248.055 81.7978L242.842 78.7753L245.327 75.6786L247.813 72.5809L252.178 75.0746C254.578 76.4474 259.857 79.3859 263.909 81.607C267.961 83.8281 271.275 86.0306 271.275 86.5017C271.275 86.9738 270.538 87.9693 269.638 88.7162C268.738 89.4631 268.001 90.7498 268.001 91.5752C268.001 93.8497 266.736 93.4495 259.713 88.9485ZM431.716 87.5299C429.629 87.0785 427.052 85.6348 425.987 84.3209C422.533 80.0587 424.271 68.2859 427.91 71.303C428.956 72.1709 430.386 72.2462 432.471 71.544C435.069 70.6695 435.864 70.9301 437.961 73.3496C440.347 76.0995 439.335 78.2552 436.832 75.7539C436.165 75.0877 434.243 74.5414 432.563 74.5414C430.102 74.5414 429.507 75.0299 429.507 77.0492C429.507 82.066 433.51 83.6264 437.121 80.0183C438.378 78.7622 440.009 78.1418 441.03 78.5332C442.469 79.085 442.684 78.5932 442.24 75.7768C441.935 73.8479 442.135 72.618 442.696 72.9636C444.026 73.7858 443.969 79.6247 442.604 82.1696C440.483 86.1299 435.833 88.4185 431.716 87.5299ZM136.231 86.5453C134.366 85.7635 133.776 84.6208 133.776 81.7978C133.776 79.7523 134.391 77.5966 135.14 77.0056C135.891 76.4146 140.111 75.8291 144.518 75.7048C150.8 75.5282 152.982 75.8858 154.613 77.36C157.018 79.5342 157.272 82.1053 155.328 84.5946C153.684 86.7012 139.949 88.1045 136.231 86.5453ZM433.054 85.1725C433.304 84.4223 433.958 83.767 434.508 83.7158C437.007 83.4803 439.328 81.7891 439.328 80.2037C439.328 78.7709 439.567 78.7197 440.693 79.9115C441.784 81.0673 441.784 81.4565 440.693 81.8556C439.943 82.1304 439.328 83.103 439.328 84.0167C439.328 85.0297 438.703 85.4386 437.727 85.0646C436.846 84.7265 435.834 84.9195 435.48 85.4931C434.53 87.0283 432.523 86.7634 433.054 85.1725ZM136.971 83.1172C135.83 80.9866 135.948 80.8448 138.355 81.4478C140.179 81.9058 141.527 81.4772 142.747 80.0521C143.716 78.9214 144.223 77.71 143.871 77.36C143.521 77.0089 144.283 76.7221 145.564 76.7221C147.248 76.7221 147.709 77.2041 147.226 78.4613C146.673 79.9017 147.28 80.135 150.78 79.8242C154.112 79.5277 155.081 79.8504 155.381 81.3562C155.661 82.7639 155.049 83.2644 153.044 83.2644C151.549 83.2644 150.134 82.6854 149.897 81.9777C149.618 81.1403 148.73 81.0084 147.351 81.6015C145.413 82.4346 145.397 82.5502 147.157 82.97C150.656 83.8052 147.918 85.4451 143.026 85.4451C139.234 85.4451 137.955 84.9533 136.971 83.1172ZM428.789 83.8652C429.195 82.8086 428.872 82.4858 427.815 82.8914C426.838 83.2654 426.233 82.8271 426.233 81.7455C426.233 79.4328 427.655 79.5266 429.884 81.9875C432.155 84.4943 432.169 85.4451 429.936 85.4451C428.854 85.4451 428.415 84.841 428.789 83.8652ZM353.119 83.2644C353.119 82.6647 354.347 82.174 355.847 82.174C357.348 82.174 358.575 82.6647 358.575 83.2644C358.575 83.8641 357.348 84.3547 355.847 84.3547C354.347 84.3547 353.119 83.8641 353.119 83.2644ZM360.758 83.2644C360.758 82.6647 361.711 82.174 362.876 82.174C364.041 82.174 365.298 82.6647 365.669 83.2644C366.052 83.8826 365.134 84.3547 363.55 84.3547C362.015 84.3547 360.758 83.8641 360.758 83.2644ZM425.142 77.8125C425.142 77.2128 425.633 76.7221 426.233 76.7221C426.834 76.7221 427.325 77.2128 427.325 77.8125C427.325 78.4122 426.834 78.9029 426.233 78.9029C425.633 78.9029 425.142 78.4122 425.142 77.8125ZM226.157 73.6375C223.914 71.1612 223.835 67.0385 225.973 63.9888C227.186 62.2594 228.635 61.7153 231.702 61.8386C233.961 61.928 235.654 62.4143 235.463 62.9191C235.273 63.424 235.967 64.4565 237.005 65.2144C238.043 65.9733 238.629 67.2773 238.308 68.1137C237.986 68.95 237.613 70.1254 237.477 70.7251C236.313 75.8717 229.717 77.5683 226.157 73.6375ZM426.233 73.9962C426.233 73.0966 426.724 72.3606 427.325 72.3606C427.925 72.3606 428.416 73.0966 428.416 73.9962C428.416 74.8958 427.925 75.6318 427.325 75.6318C426.724 75.6318 426.233 74.8958 426.233 73.9962ZM438.933 70.7251C438.589 69.8255 438.782 69.0895 439.362 69.0895C439.944 69.0895 440.42 69.8255 440.42 70.7251C440.42 71.6246 440.227 72.3606 439.991 72.3606C439.755 72.3606 439.279 71.6246 438.933 70.7251ZM434.759 68.3448C435.546 68.0297 436.488 68.069 436.85 68.431C437.213 68.793 436.569 69.0503 435.418 69.0034C434.147 68.9511 433.889 68.6926 434.759 68.3448ZM385.311 47.3617C374.747 45.6771 361.031 38.1219 354.235 30.244C351.755 27.3676 351.497 27.288 351.106 29.2713C350.599 31.8348 358.982 39.8382 361.705 39.3889C362.795 39.2101 363.443 39.9101 363.46 41.2851C363.498 44.4602 361.637 45.2845 359.93 42.8486C359.117 41.6885 357.928 40.7399 357.289 40.7399C356.572 40.7399 356.68 41.4726 357.568 42.648C358.361 43.6981 356.811 42.4736 354.121 39.9286C349.066 35.1463 348.184 31.8882 350.309 25.8519C351.131 23.5186 351.169 23.524 355.972 26.7635C358.779 28.6564 361.46 31.5851 362.364 33.7462C363.925 37.4786 366.758 39.1447 365.449 35.5606C364.791 33.7571 364.87 33.755 366.884 35.5159C368.057 36.542 371.947 38.7314 375.527 40.3833C381.449 43.1158 383.34 43.4113 396.457 43.6588C404.726 43.8147 411.15 43.4887 411.519 42.8934C411.888 42.2969 411.325 42.1552 410.194 42.5619C406.675 43.8256 409.205 42.1061 413.451 40.3484C415.725 39.4064 417.292 39.1098 416.934 39.6888C415.973 41.2414 417.741 40.9023 420.167 39.0694C421.333 38.1895 423.074 37.4688 424.038 37.4688C425.001 37.4688 427.709 35.5061 430.053 33.1073C432.397 30.7085 433.93 28.7458 433.459 28.7458C432.988 28.7458 433.674 26.9053 434.982 24.6569C437.235 20.785 437.241 20.7119 435.095 23.2939C433.849 24.7932 432.818 26.2696 432.805 26.5749C432.792 26.8813 431.752 27.7732 430.496 28.5572C428.626 29.7228 428.82 29.098 431.553 25.1268C436.121 18.493 438.842 11.1875 440.34 1.5323C441.034 -2.9404 441.826 -6.82431 442.101 -7.10017C442.939 -7.93649 442.566 3.92349 441.609 8.57393C440.219 15.3266 439.97 16.0517 438.503 17.6273C436.869 19.386 437.298 22.3671 440.001 28.0163L442 32.1936L435.029 38.9201C430.114 43.6621 427.901 45.1788 427.527 44.0611C427.233 43.1889 426.134 41.5522 425.083 40.4248C423.553 38.7849 422.986 38.666 422.247 39.8305C421.738 40.6298 420.586 41.3712 419.686 41.477C418.786 41.5827 414.984 42.9501 411.236 44.5158C403.714 47.6594 393.919 48.7345 385.311 47.3617ZM352.505 37.1962L349.3 33.6525L352.846 36.8549C354.796 38.6158 356.393 40.211 356.393 40.3986C356.393 41.2414 355.493 40.4989 352.505 37.1962ZM421.868 35.9324C421.868 35.7253 422.605 34.9446 423.505 34.1977C424.449 33.4148 425.142 33.309 425.142 33.948C425.142 34.5564 424.406 35.3371 423.505 35.6827C422.605 36.0273 421.868 36.1396 421.868 35.9324ZM214.529 21.0412C214.529 18.5465 216.893 15.6613 218.936 15.6613C220.116 15.6613 223.414 17.1235 226.264 18.9117L231.444 22.1621L222.987 22.1828C217.715 22.1959 214.529 21.7663 214.529 21.0412ZM273.633 11.7916C273.836 10.7645 275.008 9.25975 276.236 8.44633C278.305 7.07574 278.465 7.18697 278.418 9.95105C278.38 12.231 277.765 13.0204 275.815 13.2963C273.89 13.5689 273.354 13.1993 273.633 11.7916ZM248.773 10.807C247.834 8.36458 249.272 6.93835 252.671 6.93835C255.784 6.93835 257.171 8.50522 256.291 11.0273C255.627 12.9278 249.518 12.7479 248.773 10.807ZM272.366 0.422302C272.366 -0.262451 271.875 -0.519775 271.275 -0.149048C270.674 0.221664 270.183 -0.0291138 270.183 -0.706238C270.183 -2.20222 274.619 -1.67885 274.674 -0.176315C274.695 0.408127 274.184 1.06235 273.539 1.27715C272.894 1.49196 272.366 1.10815 272.366 0.422302ZM346.204 -4.02641C345.313 -10.5468 346.581 -18.3397 349.43 -23.8428C351.072 -27.0158 351.049 -29.2587 349.325 -33.9506C348.824 -35.3146 349.312 -35.0071 350.628 -33.1284L352.732 -30.1266L355.38 -32.9725C358.399 -36.2142 367.305 -42.5983 367.305 -41.5199C367.305 -41.1274 366.065 -39.832 364.549 -38.6402C360.699 -35.6145 352.013 -22.0143 350.112 -16.0368C349.24 -13.2957 348.19 -8.10876 347.78 -4.51054L347.032 2.03169L346.204 -4.02641ZM386.087 -0.259186C385.312 -1.09767 385.161 -1.78461 385.75 -1.78461C386.883 -1.78461 388.523 0.289291 387.876 0.904251C387.666 1.10379 386.861 0.580399 386.087 -0.259186ZM440.506 -12.2336C440.558 -13.5039 440.817 -13.7623 441.165 -12.8933C441.48 -12.1061 441.441 -11.1651 441.079 -10.8031C440.717 -10.4411 440.459 -11.0844 440.506 -12.2336ZM434.405 -24.7042C428.878 -33.4512 422.734 -39.0611 414.23 -43.125C406.285 -46.9205 405.677 -47.0339 393.496 -47.0034C382.061 -46.974 380.42 -46.7079 375.028 -44.0114C371.773 -42.3846 368.902 -41.2604 368.648 -41.5145C367.769 -42.3911 377.152 -46.5411 383.944 -48.2802C396.946 -51.608 412.343 -48.2213 423.235 -39.6368C429.993 -34.3115 431.862 -32.2594 435.662 -25.9963C439.36 -19.899 438.196 -18.7017 434.405 -24.7042ZM435.208 -32.6901C433.941 -34.837 430.234 -38.6566 426.971 -41.1797L421.037 -45.7669L424.978 -47.7743L428.919 -49.7817L435.321 -43.3844L441.723 -36.9883L439.618 -32.8874L437.513 -28.7877L435.208 -32.6901ZM353.119 -36.5086C353.119 -38.818 355.506 -43.7595 358.299 -47.2346C360.183 -49.5789 360.269 -49.5854 363.953 -47.6511L367.694 -45.6873L363.135 -42.6724C360.627 -41.014 358.575 -39.2323 358.575 -38.7122C358.575 -38.1921 357.609 -37.7669 356.427 -37.7669C354.965 -37.7669 354.48 -37.2435 354.907 -36.1313C355.253 -35.2318 354.992 -34.4957 354.327 -34.4957C353.663 -34.4957 353.119 -35.4018 353.119 -36.5086ZM231.634 -70.2054C259.347 -70.3668 305.016 -70.3668 333.121 -70.2054C361.225 -70.043 338.551 -69.911 282.733 -69.911C226.915 -69.911 203.92 -70.043 231.634 -70.2054Z" fill="#EDA63E"/>
</g>
<defs>
<clipPath id="clip0_770_6621">
<rect width="343" height="407" rx="20" fill="white"/>
</clipPath>
</defs>
</svg>
