<svg width="20" height="21" viewBox="0 0 20 21" fill="none" xmlns="http://www.w3.org/2000/svg">
<path d="M2 21C1.45 21 0.979002 20.804 0.587002 20.412C0.195002 20.02 -0.000664969 19.5493 1.69779e-06 19V7C1.69779e-06 6.58333 0.112668 6.20833 0.338002 5.875C0.563335 5.54167 0.867335 5.3 1.25 5.15L13.0698 0.337991C13.5268 0.151948 14.0477 0.374931 14.2285 0.833994C14.4066 1.28603 14.1876 1.79718 13.7374 1.97997L6.3 5H18C18.55 5 19.021 5.196 19.413 5.588C19.805 5.98 20.0007 6.45067 20 7V19C20 19.55 19.804 20.021 19.412 20.413C19.02 20.805 18.5493 21.0007 18 21H2ZM2 19H18V12H2V19ZM6 18C6.7 18 7.29167 17.7583 7.775 17.275C8.25834 16.7917 8.5 16.2 8.5 15.5C8.5 14.8 8.25834 14.2083 7.775 13.725C7.29167 13.2417 6.7 13 6 13C5.3 13 4.70833 13.2417 4.225 13.725C3.74167 14.2083 3.5 14.8 3.5 15.5C3.5 16.2 3.74167 16.7917 4.225 17.275C4.70833 17.7583 5.3 18 6 18ZM2 10H14V9C14 8.44771 14.4477 8 15 8C15.5523 8 16 8.44771 16 9V10H18V7H2V10Z" fill="black"/>
</svg>
