<svg width="22" height="20" viewBox="0 0 22 20" fill="none" xmlns="http://www.w3.org/2000/svg">
<path d="M20 4H12.41L15.35 1.06001C15.5437 0.866305 15.5448 0.552591 15.3525 0.357517C15.1582 0.160478 14.8406 0.159351 14.645 0.355009L11 4L7.35473 0.35473C7.15882 0.158818 6.84118 0.158818 6.64527 0.354731C6.44915 0.550853 6.44939 0.868905 6.64581 1.06473L9.59 4H2C1.46957 4 0.960859 4.21071 0.585786 4.58579C0.210714 4.96086 0 5.46957 0 6V18C0 19.1 0.9 20 2 20H20C21.1 20 22 19.1 22 18V6C22 5.46957 21.7893 4.96086 21.4142 4.58579C21.0391 4.21071 20.5304 4 20 4ZM20 17C20 17.5523 19.5523 18 19 18H3C2.44772 18 2 17.5523 2 17V7C2 6.44771 2.44772 6 3 6H19C19.5523 6 20 6.44772 20 7V17ZM9.49614 8.85494C8.82948 8.47399 8 8.95536 8 9.72318V14.2768C8 15.0446 8.82948 15.526 9.49614 15.1451L13.4806 12.8682C14.1524 12.4843 14.1524 11.5157 13.4806 11.1318L9.49614 8.85494Z" fill="black"/>
</svg>
