<svg width="33" height="33" viewBox="0 0 33 33" fill="none" xmlns="http://www.w3.org/2000/svg">
<path d="M0.5 16.4727C0.5 25.3092 7.66344 32.4727 16.5 32.4727C25.3366 32.4727 32.5 25.3092 32.5 16.4727C32.5 7.6361 25.3366 0.472656 16.5 0.472656C7.66344 0.472656 0.5 7.6361 0.5 16.4727Z" fill="#1877F2"/>
<path d="M24.5 16.4727C24.5 12.0727 20.9 8.47266 16.5 8.47266C12.1 8.47266 8.5 12.0727 8.5 16.4727C8.5 20.4727 11.4 23.7727 15.2 24.3727V18.7727H13.2V16.4727H15.2V14.6727C15.2 12.6727 16.4 11.5727 18.2 11.5727C19.1 11.5727 20 11.7727 20 11.7727V13.7727H19C18 13.7727 17.7 14.3727 17.7 14.9727V16.4727H19.9L19.5 18.7727H17.6V24.4727C21.6 23.8727 24.5 20.4727 24.5 16.4727Z" fill="white"/>
</svg>
