<svg width="169" height="37" viewBox="0 0 169 37" fill="none" xmlns="http://www.w3.org/2000/svg">
<path d="M168.384 16.9121C167.689 18.7055 167.023 20.528 166.328 22.3214C164.909 26.053 163.461 29.7557 162.012 33.4873C161.954 33.6609 161.868 33.8055 161.781 33.9791C161.607 34.3551 161.346 34.5287 160.912 34.5287C160.043 34.4997 159.145 34.4997 158.276 34.5287C157.842 34.5287 157.61 34.384 157.436 34.008C156.944 32.9377 156.567 31.8095 156.133 30.7103C154.859 27.3837 153.584 24.086 152.31 20.7594C152.223 20.528 152.107 20.4701 151.904 20.4701C151.47 20.499 151.007 20.499 150.572 20.4701C150.254 20.4412 150.196 20.5569 150.196 20.8461C150.196 24.3463 150.196 27.8465 150.196 31.3467C150.196 32.1856 150.196 32.9955 150.196 33.8344C150.196 34.2973 149.993 34.4997 149.529 34.4997C148.4 34.4997 147.299 34.4997 146.17 34.4997C145.591 34.4997 145.417 34.3262 145.417 33.7476C145.417 29.4664 145.417 25.1852 145.417 20.8751C145.417 20.528 145.359 20.4412 144.982 20.4412C143.766 20.4701 142.549 20.4412 141.333 20.4412C140.783 20.4412 140.609 20.2676 140.609 19.718C140.609 18.7634 140.609 17.8088 140.609 16.8542C140.609 16.3624 140.783 16.1889 141.246 16.1889C145.88 16.1889 150.485 16.1889 155.119 16.1889C155.554 16.1889 155.727 16.3335 155.901 16.8253C156.741 19.3419 157.581 21.8875 158.45 24.4042C158.826 25.5034 159.203 26.6026 159.579 27.7597C159.753 27.6151 159.753 27.4415 159.811 27.2969C160.825 24.2306 161.839 21.1933 162.852 18.127C162.997 17.6352 163.2 17.1724 163.345 16.7096C163.461 16.3624 163.692 16.2178 164.069 16.2178C165.343 16.2178 166.617 16.2178 167.892 16.2178C168.095 16.2178 168.268 16.2757 168.413 16.4203C168.442 16.4492 168.471 16.4782 168.5 16.5071C168.5 16.5649 168.5 16.6517 168.5 16.7096C168.471 16.8253 168.442 16.8542 168.384 16.9121Z" fill="#FEFEFE"/>
<path d="M24.3818 0.625976H24.0633C24.4283 0.73398 25.1145 1.00335 25.3302 1.06813C27.0101 1.55989 28.2019 2.11797 29.7369 2.95686L30.9488 3.74536C30.7983 3.71918 30.4764 3.66619 30.3913 3.66277C28.8614 3.60621 27.3601 3.7221 25.8589 4.01045C24.0342 4.35757 22.2965 4.96504 20.6746 5.86178C19.3423 6.61389 18.0969 7.4817 17.0253 8.60986C16.6777 8.95698 16.7067 9.07269 17.199 9.15947C18.039 9.33304 18.8499 9.59338 19.6029 9.96943C21.8331 11.0397 23.7736 12.4861 25.3665 14.3085C26.3223 15.4367 27.1622 16.6227 27.5387 18.0401C28.2049 20.6146 28.3786 23.2181 28.0311 25.8504C27.8283 27.615 27.4229 29.3217 26.7857 30.9705C26.1775 32.5326 25.4534 34.0079 24.3818 35.3096C24.1043 35.5704 23.428 36.1509 22.9433 36.3856L24.0922 36.1485C26.0037 35.7146 27.7704 34.9046 29.4213 33.8343C32.1148 32.0697 34.3739 29.9002 35.822 27.0075C37.7915 23.1023 38.3997 18.9947 37.5598 14.7135C37.0674 12.139 36.1117 9.76694 34.4318 7.71312C34.258 7.51063 34.3739 7.42385 34.4897 7.27921C35.3007 6.46925 35.9668 5.54358 36.5171 4.53114C37.0385 3.51869 37.415 2.47731 37.3571 1.32023C37.3281 0.741685 37.3571 0.741685 36.7778 0.741685C36.633 0.741685 36.4882 0.712758 36.3434 0.712758C32.3755 0.683831 28.3786 0.654904 24.3818 0.625976Z" fill="#FEFEFE"/>
<path d="M4.9189 30.4209C4.05002 29.4953 3.26803 28.4828 2.65981 27.3546C1.55923 25.3298 0.922053 23.1602 0.661389 20.9039C0.197986 17.4616 0.748277 14.1928 2.10952 11.0398C3.38388 8.06026 5.44023 5.71716 8.07583 3.86583C9.46604 2.91123 10.8852 2.01449 12.5071 1.46488C13.1443 1.26239 13.7815 1.08883 14.4186 0.944191C14.4186 1.08883 14.2738 1.08883 14.2449 1.20454C14.2449 1.29132 14.1869 1.34917 14.129 1.43595C12.594 3.17158 11.6962 5.25433 11.03 7.45279C10.5956 8.81237 10.3349 10.2298 10.1901 11.6762C9.92944 14.3085 10.0743 16.883 10.8852 19.4286C11.2038 20.47 11.783 21.3667 12.4492 22.2056C14.158 24.3752 16.2723 26.024 18.763 27.2389C19.4871 27.5861 20.2691 27.8464 21.0511 28.02C21.1959 28.0489 21.3987 28.0489 21.4276 28.2225C21.4566 28.3671 21.3118 28.4828 21.1959 28.5696C19.1975 30.392 16.9384 31.7516 14.3607 32.5615C12.2465 33.2269 10.1611 33.3426 8.04687 32.5615C6.94628 32.1565 5.93259 31.5491 5.12164 30.6523C5.03475 30.5945 4.94786 30.5077 4.9189 30.4209Z" fill="#FEFEFE"/>
<path d="M45.206 23.3628C45.8721 22.466 46.5672 21.5693 47.2333 20.6436C48.1601 19.3998 49.087 18.1559 50.0138 16.912C50.3323 16.4492 50.7378 16.2756 51.2881 16.2756C52.5914 16.3046 53.8947 16.2756 55.1981 16.2756C55.4877 16.2756 55.8063 16.2756 55.9511 16.5938C56.0959 16.941 55.9511 17.2013 55.7484 17.4327C53.8948 19.7469 52.0411 22.0611 50.1586 24.3752C50.0138 24.5777 49.9848 24.6645 50.1586 24.867C52.3308 27.3547 54.474 29.8135 56.6172 32.3013C56.8489 32.5616 57.0806 32.822 57.2834 33.1112C57.4572 33.3137 57.4572 33.5451 57.3703 33.7766C57.2834 34.008 57.0806 34.0658 56.8779 34.0658C55.285 34.0658 53.6631 34.0658 52.0701 34.0658C51.7805 34.0658 51.5777 33.8633 51.4329 33.6608C49.9558 31.8963 48.5077 30.1028 47.0596 28.3382C46.7699 27.9911 46.7699 27.9911 46.4513 28.3093C46.0459 28.7143 45.4956 29.0614 45.2928 29.5821C45.0901 30.0739 45.2349 30.6813 45.2349 31.2599C45.206 31.9252 45.2928 32.6195 45.177 33.2848C45.0901 33.8344 44.8005 34.0947 44.2502 34.0947C43.1786 34.0947 42.078 34.0947 41.0064 34.0947C40.514 34.0947 40.0506 33.6319 40.0216 33.1401C40.0216 33.0244 40.0216 32.9377 40.0216 32.822C40.0216 27.6151 40.0216 22.4082 40.0216 17.1724C40.0216 16.4781 40.2244 16.2756 40.8905 16.2756C41.9911 16.2756 43.1206 16.3046 44.2212 16.2756C44.8294 16.2756 45.148 16.5071 45.177 17.2592C45.206 19.1394 45.177 21.0486 45.177 22.9289C45.177 23.0735 45.177 23.1892 45.177 23.3339C45.177 23.3628 45.206 23.3628 45.206 23.3628Z" fill="#FEFEFE"/>
<path d="M110.893 19.2551C111.212 18.8212 111.444 18.4162 111.762 18.0691C112.689 17.0277 113.876 16.4492 115.267 16.3335C118.221 16.102 120.306 17.4327 121.754 19.9493C122.449 21.1643 122.739 22.466 122.768 23.8256C122.797 26.9208 122.768 30.016 122.768 33.1112C122.768 33.8633 122.507 34.1236 121.754 34.1236C120.712 34.1236 119.669 34.1236 118.597 34.1236C117.786 34.1236 117.613 33.9501 117.613 33.1112C117.613 30.2474 117.584 27.3547 117.613 24.4909C117.642 22.871 116.599 21.8007 115.44 21.3668C114.282 20.9329 112.776 21.5114 111.994 22.6396C111.646 23.1603 111.444 23.7388 111.473 24.4041C111.501 27.2679 111.473 30.1317 111.473 32.9955C111.473 33.8344 111.183 34.1236 110.372 34.1236C109.387 34.1236 108.402 34.1236 107.418 34.1236C106.636 34.1236 106.346 33.8344 106.346 33.0533C106.346 27.9043 106.346 22.7553 106.346 17.6352C106.346 16.912 106.723 16.5649 107.447 16.5649C108.113 16.5649 108.779 16.5649 109.445 16.5649C110.024 16.5649 110.256 16.7384 110.401 17.317C110.517 17.9244 110.691 18.5608 110.893 19.2551Z" fill="#FEFEFE"/>
<path d="M80.048 29.6399C80.2508 29.6399 80.3666 29.6399 80.5114 29.6399C82.5388 29.6399 84.5662 29.6399 86.5936 29.6399C86.7384 29.6399 86.9122 29.6399 87.057 29.6689C87.5783 29.7557 87.7811 29.9003 87.839 30.421C87.9259 31.2888 87.9259 32.1855 87.839 33.0533C87.81 33.574 87.2308 34.0369 86.7095 34.0369C82.7705 34.0369 78.8316 34.0369 74.8637 34.0369C74.1397 34.0369 73.6763 33.574 73.6763 32.8509C73.6763 32.1855 73.6763 31.4913 73.7052 30.826C73.7052 30.5945 73.8211 30.392 73.9659 30.2185C76.5146 27.239 79.0633 24.2306 81.612 21.2222C81.641 21.1932 81.67 21.1354 81.7279 21.0486C81.5541 21.0486 81.4383 21.0486 81.2934 21.0486C79.2661 21.0486 77.2387 21.0486 75.2113 21.0486C74.4003 21.0486 74.0238 20.6725 74.0238 19.8626C74.0238 19.1394 74.0238 18.4451 74.0238 17.722C74.0238 16.9988 74.4003 16.6227 75.1244 16.6227C78.9475 16.6227 82.7416 16.6227 86.5646 16.6227C87.3177 16.6227 87.6652 16.9988 87.6652 17.722C87.6652 18.503 87.6652 19.313 87.6652 20.094C87.6652 20.3833 87.5783 20.6147 87.3756 20.8461C84.9717 23.681 82.5968 26.5447 80.1929 29.3796C80.1639 29.4375 80.1349 29.4953 80.048 29.6399Z" fill="#FEFEFE"/>
<path d="M19.9795 0.481393C18.3575 0.423539 16.7646 0.654956 15.1717 1.11779C14.8531 1.17564 14.7083 1.46491 14.5055 1.63848C13.1443 3.40303 12.2754 5.42793 11.6382 7.53961C10.9431 9.91163 10.6535 12.3126 10.7404 14.7714C10.7404 15.0317 10.7693 15.2921 10.8852 15.5524C11.0879 15.5813 11.059 15.3789 11.0879 15.2631C11.4355 13.9904 11.841 12.7465 12.5361 11.6183C13.4339 10.0273 14.5634 8.60991 15.8957 7.36605C17.2859 6.09325 18.792 5.05188 20.5008 4.29977C23.0495 3.17161 25.6851 2.88234 28.4366 3.20054C28.3926 3.18657 28.7821 3.25765 30.6917 3.65373L29.4503 3.08485C27.2781 2.13026 26.2354 1.5517 23.9184 0.944227C23.3065 0.824849 22.6194 0.649777 21.7172 0.597102C21.138 0.568174 20.5587 0.51032 19.9795 0.481393Z" fill="#FEFEFE"/>
<path d="M17.8652 36.4668C19.7188 36.5246 21.5145 36.1486 23.3102 35.6857C23.5709 35.6857 23.6577 35.4832 23.8026 35.3965C25.7141 32.8219 26.7278 29.9292 27.2491 26.8051C27.3939 25.8505 27.4518 24.9248 27.5098 23.9703C27.5677 23.2471 27.5677 22.5239 27.3939 21.8296C27.1912 21.8875 27.1912 21.8875 27.1333 22.1478C26.6409 24.057 25.743 25.7927 24.5845 27.3836C24.0053 28.1936 23.3102 28.8879 22.6151 29.5821C21.6304 30.5367 20.5008 31.3467 19.2844 31.9831C17.3439 32.9955 15.2586 33.603 13.0864 33.8633C12.1016 33.979 11.1169 33.979 10.1032 33.8923C9.32169 33.7882 7.63011 33.4701 7.116 33.03C7.15835 33.1228 7.31113 33.3558 7.58347 33.5451C7.98535 33.8014 9.34157 34.49 11.5513 35.194C13.6077 35.8882 15.693 36.4089 17.8652 36.4668Z" fill="#FEFEFE"/>
<path d="M105.13 23.9123C104.927 22.5527 104.493 21.2799 103.682 20.1518C103.508 19.8914 103.508 19.7757 103.739 19.5732C104.579 18.8211 105.014 17.8376 105.159 16.7384C105.188 16.4491 105.13 16.3334 104.811 16.3334C103.276 16.3623 101.712 16.3334 100.177 16.3334C98.9606 16.3334 97.7442 16.3334 96.5278 16.3334C94.7611 16.3334 93.0812 16.7095 91.6041 17.6641C88.8237 19.4575 87.4625 22.0321 87.4625 25.3297C87.4625 26.9786 87.81 28.5696 88.7079 29.987C90.6773 33.169 93.5736 34.6153 97.2808 34.2393C100.554 33.9211 102.929 32.2144 104.406 29.2638C105.246 27.5861 105.419 25.7636 105.13 23.9123ZM100.177 25.3008C100.206 26.5736 99.8875 27.615 99.1055 28.5117C97.8021 29.9581 95.4851 30.0449 93.9212 28.8299C93.0233 28.1067 92.6178 27.1522 92.473 26.0529C92.2703 24.6066 92.5889 23.247 93.6026 22.1767C94.6162 21.1064 95.8906 20.7593 97.3098 21.1064C98.7869 21.4824 99.5978 22.5527 100.032 23.9412C100.177 24.433 100.206 24.9248 100.177 25.3008Z" fill="#FEFEFE"/>
<path d="M140.464 23.1602C139.885 20.47 138.321 18.5029 135.888 17.288C132.876 15.7838 129.864 16.0152 127.17 17.9822C123.984 20.2964 122.971 23.5652 123.695 27.3257C124.506 31.4044 128.329 34.3839 132.499 34.4418C135.019 34.4707 137.133 33.574 138.9 31.8094C139.219 31.4912 139.248 31.0862 138.958 30.7391C138.466 30.1316 137.973 29.5242 137.452 28.9456C136.96 28.396 136.554 28.396 135.946 28.8588C134.353 30.0449 132.586 30.5077 130.646 29.7556C129.545 29.3217 128.908 28.5117 128.618 27.3836C128.56 27.1232 128.589 27.0075 128.908 27.0075C130.559 27.0364 132.21 27.0075 133.861 27.0075C135.367 27.0075 136.873 27.0075 138.379 27.0075C138.813 27.0075 139.248 26.9497 139.682 26.8918C140.203 26.805 140.493 26.5447 140.551 26.024C140.725 25.0694 140.667 24.1148 140.464 23.1602ZM135.425 22.9866C134.382 22.9866 133.339 22.9866 132.268 22.9866C131.225 22.9866 130.182 22.9866 129.169 22.9866C129.053 22.9866 128.937 23.0445 128.879 22.9288C128.821 22.8131 128.937 22.7263 128.995 22.6395C129.603 21.7717 130.269 20.9617 131.312 20.6435C132.499 20.2675 133.571 20.5278 134.527 21.3089C134.99 21.6849 135.338 22.1478 135.627 22.6974C135.743 22.9288 135.743 22.9866 135.425 22.9866Z" fill="#FEFEFE"/>
<path d="M73.5025 24.028C73.4735 23.4784 73.4156 22.9288 73.2128 22.4371C72.6046 21.1064 71.9385 19.8336 70.8669 18.7922C68.1444 16.102 63.8579 15.4656 60.3824 17.7509C56.7041 20.1518 55.7484 24.4909 56.7621 27.9621C57.5151 30.5656 59.2528 32.4169 61.6857 33.574C64.8426 35.0782 68.8105 34.7889 71.7358 31.9252C72.1702 31.4912 72.1992 31.1152 71.7937 30.6524C71.3303 30.1027 70.8669 29.5531 70.3745 29.0035C69.8532 28.396 69.4767 28.425 68.8105 28.8878C67.3624 29.9581 65.7694 30.4209 64.0027 29.9292C62.6994 29.5531 61.8595 28.7432 61.5409 27.4125C61.483 27.1522 61.5119 27.0365 61.8305 27.0365C63.4814 27.0654 65.1323 27.0365 66.7831 27.0365C68.2892 27.0365 69.7663 27.0365 71.2723 27.0365C71.7357 27.0365 72.1992 26.9786 72.6626 26.8918C73.097 26.805 73.3866 26.5736 73.4735 26.1108C73.5894 25.4165 73.5604 24.7223 73.5025 24.028ZM68.2023 22.9867C67.2755 22.9867 66.3777 22.9867 65.4509 22.9867C64.1765 22.9867 62.9021 22.9867 61.5699 22.9867C62.6994 20.9328 64.4372 19.9204 66.4935 20.7882C67.3914 21.1643 67.9706 21.8874 68.405 22.7263C68.5499 23.0156 68.3761 22.9867 68.2023 22.9867Z" fill="#FEFEFE"/>
</svg>
