<svg width="24" height="20" viewBox="0 0 24 20" fill="none" xmlns="http://www.w3.org/2000/svg">
<path d="M23.3538 10.3535L14.3538 19.3535C14.2599 19.4474 14.1327 19.5001 14 19.5001C13.8673 19.5001 13.7401 19.4474 13.6462 19.3535C13.5524 19.2597 13.4997 19.1325 13.4997 18.9998C13.4997 18.8671 13.5524 18.7399 13.6462 18.646L21.7925 10.4998H1C0.867392 10.4998 0.740215 10.4471 0.646447 10.3533C0.552679 10.2596 0.5 10.1324 0.5 9.99979C0.5 9.86718 0.552679 9.74 0.646447 9.64624C0.740215 9.55247 0.867392 9.49979 1 9.49979H21.7925L13.6462 1.35354C13.5524 1.25972 13.4997 1.13247 13.4997 0.99979C13.4997 0.867108 13.5524 0.73986 13.6462 0.64604C13.7401 0.55222 13.8673 0.499512 14 0.499512C14.1327 0.499512 14.2599 0.552219 14.3538 0.646039L23.3538 9.64604C23.4002 9.69248 23.4371 9.74762 23.4623 9.80832C23.4874 9.86902 23.5004 9.93408 23.5004 9.99979C23.5004 10.0655 23.4874 10.1306 23.4623 10.1913C23.4371 10.252 23.4002 10.3071 23.3538 10.3535Z" fill="white"/>
</svg>
