<svg width="33" height="33" viewBox="0 0 33 33" fill="none" xmlns="http://www.w3.org/2000/svg">
<path d="M0.5 16.4727C0.5 25.3092 7.66344 32.4727 16.5 32.4727C25.3366 32.4727 32.5 25.3092 32.5 16.4727C32.5 7.6361 25.3366 0.472656 16.5 0.472656C7.66344 0.472656 0.5 7.6361 0.5 16.4727Z" fill="#F00073"/>
<path d="M16.5 9.67261C18.7 9.67261 19 9.67261 19.9 9.67261C20.7 9.67261 21.1 9.87261 21.4 9.97261C21.8 10.1726 22.1 10.2726 22.4 10.5726C22.7 10.8726 22.9 11.1726 23 11.5726C23.1 11.8726 23.2 12.2726 23.3 13.0726C23.3 13.9726 23.3 14.1726 23.3 16.4726C23.3 18.7726 23.3 18.9726 23.3 19.8726C23.3 20.6726 23.1 21.0726 23 21.3726C22.8 21.7726 22.7 22.0726 22.4 22.3726C22.1 22.6726 21.8 22.8726 21.4 22.9726C21.1 23.0726 20.7 23.1726 19.9 23.2726C19 23.2726 18.8 23.2726 16.5 23.2726C14.2 23.2726 14 23.2726 13.1 23.2726C12.3 23.2726 11.9 23.0726 11.6 22.9726C11.2 22.7726 10.9 22.6726 10.6 22.3726C10.3 22.0726 10.1 21.7726 10 21.3726C9.90001 21.0726 9.80001 20.6726 9.70001 19.8726C9.70001 18.9726 9.70001 18.7726 9.70001 16.4726C9.70001 14.1726 9.70001 13.9726 9.70001 13.0726C9.70001 12.2726 9.90001 11.8726 10 11.5726C10.2 11.1726 10.3 10.8726 10.6 10.5726C10.9 10.2726 11.2 10.0726 11.6 9.97261C11.9 9.87261 12.3 9.77261 13.1 9.67261C14 9.67261 14.3 9.67261 16.5 9.67261ZM16.5 8.17261C14.2 8.17261 14 8.17261 13.1 8.17261C12.2 8.17261 11.6 8.37261 11.1 8.57261C10.6 8.77261 10.1 9.07261 9.60001 9.57261C9.10001 10.0726 8.90001 10.4726 8.60001 11.0726C8.40001 11.5726 8.30001 12.1726 8.20001 13.0726C8.20001 13.9726 8.20001 14.2726 8.20001 16.4726C8.20001 18.7726 8.20001 18.9726 8.20001 19.8726C8.20001 20.7726 8.40001 21.3726 8.60001 21.8726C8.80001 22.3726 9.10001 22.8726 9.60001 23.3726C10.1 23.8726 10.5 24.0726 11.1 24.3726C11.6 24.5726 12.2 24.6726 13.1 24.7726C14 24.7726 14.3 24.7726 16.5 24.7726C18.7 24.7726 19 24.7726 19.9 24.7726C20.8 24.7726 21.4 24.5726 21.9 24.3726C22.4 24.1726 22.9 23.8726 23.4 23.3726C23.9 22.8726 24.1 22.4726 24.4 21.8726C24.6 21.3726 24.7 20.7726 24.8 19.8726C24.8 18.9726 24.8 18.6726 24.8 16.4726C24.8 14.2726 24.8 13.9726 24.8 13.0726C24.8 12.1726 24.6 11.5726 24.4 11.0726C24.2 10.5726 23.9 10.0726 23.4 9.57261C22.9 9.07261 22.5 8.87261 21.9 8.57261C21.4 8.37261 20.8 8.27261 19.9 8.17261C19 8.17261 18.8 8.17261 16.5 8.17261Z" fill="white"/>
<path d="M16.5 12.1726C14.1 12.1726 12.2 14.0726 12.2 16.4726C12.2 18.8726 14.1 20.7726 16.5 20.7726C18.9 20.7726 20.8 18.8726 20.8 16.4726C20.8 14.0726 18.9 12.1726 16.5 12.1726ZM16.5 19.2726C15 19.2726 13.7 18.0726 13.7 16.4726C13.7 14.9726 14.9 13.6726 16.5 13.6726C18 13.6726 19.3 14.8726 19.3 16.4726C19.3 17.9726 18 19.2726 16.5 19.2726Z" fill="white"/>
<path d="M20.9 13.0726C21.4523 13.0726 21.9 12.6249 21.9 12.0726C21.9 11.5203 21.4523 11.0726 20.9 11.0726C20.3477 11.0726 19.9 11.5203 19.9 12.0726C19.9 12.6249 20.3477 13.0726 20.9 13.0726Z" fill="white"/>
</svg>
