<svg width="120" height="24" viewBox="0 0 120 24" fill="none" xmlns="http://www.w3.org/2000/svg">
<path d="M10.1319 0.124246C9.8593 0.217431 9.5564 0.264023 9.17778 0.279554L9.14749 0.310616C8.35996 0.496985 7.57242 0.761008 6.84547 1.10269C6.42142 1.30459 6.25482 1.44436 6.10337 1.44436C6.07308 1.47542 6.04279 1.49095 6.01251 1.50649C5.61874 1.75498 5.27041 2.08112 4.84635 2.28302C1.90825 4.47287 0 7.98282 0 11.9587C0 17.3945 3.58933 21.9916 8.5114 23.4359C8.40539 23.4359 8.31452 23.4204 8.22365 23.4204C8.28423 23.4359 8.34481 23.4515 8.39025 23.467C8.73858 23.436 9.10205 23.5291 9.45039 23.6844C11.0254 23.9951 12.3582 24.0882 13.9333 23.8397L13.9787 23.8863C14.1756 23.8242 14.3573 23.7776 14.5542 23.7466H14.5391H14.3573C18.4161 22.9234 23.5502 18.9165 23.5502 11.9587C23.5654 5.34259 18.2798 0 11.7675 0C11.2223 0 10.6771 0.0465923 10.1319 0.124246Z" fill="white"/>
<path d="M40.9056 22.4131L34.2267 14.508L39.7243 7.47252C39.8303 7.36381 39.8909 7.23956 39.8909 7.17744C39.9515 7.11532 39.9515 7.06872 39.9515 6.94448C39.9515 6.54068 39.7243 6.36984 39.2245 6.36984H35.2414C34.9083 6.36984 34.6811 6.47855 34.4539 6.77364L29.6833 13.3432V7.23956C29.6833 7.13085 29.6833 7.06872 29.6227 6.94448C29.5621 6.83576 29.5621 6.77364 29.5167 6.64939C29.4561 6.54068 29.3501 6.47855 29.2289 6.41643C29.1229 6.35431 29.0018 6.35431 28.8352 6.35431H25.7456C25.5185 6.35431 25.2913 6.35431 25.1853 6.41643C25.0793 6.47855 24.9581 6.52515 24.8975 6.64939C24.8369 6.75811 24.7915 6.82023 24.7915 6.99107V7.39487V22.8014C24.7915 22.8014 24.7915 22.8635 24.8521 22.9722C24.9127 23.081 24.9127 23.1431 25.0187 23.2673C25.0793 23.376 25.1853 23.4382 25.3064 23.5624C25.4124 23.6245 25.5336 23.6711 25.7002 23.6711H28.8503C29.0169 23.6711 29.1835 23.609 29.3047 23.5624C29.4107 23.5003 29.5318 23.3916 29.5924 23.2673C29.653 23.1586 29.6984 23.0344 29.6984 22.9257C29.6984 22.8169 29.759 22.6927 29.759 22.6306V19.2604L31.2129 17.7539L35.4232 22.9878C35.5898 23.2207 35.7109 23.3916 35.8775 23.5158C35.9835 23.6245 36.1653 23.6867 36.2713 23.6867H40.6482C40.8753 23.6867 41.0419 23.6245 41.1479 23.5779C41.254 23.5314 41.3145 23.345 41.3145 23.1741C41.3145 23.0654 41.3145 22.9412 41.254 22.8325C41.0874 22.6461 41.0268 22.5374 40.9056 22.4131Z" fill="white"/>
<path d="M55.293 10.4416C54.9598 9.86699 54.5054 9.27682 54.0057 8.8109C53.5513 8.28286 52.991 7.87905 52.4306 7.53738C51.8097 7.1957 51.1887 6.90062 50.5223 6.72978C49.8408 6.55894 49.1744 6.43469 48.4475 6.43469C47.66 6.43469 46.933 6.54341 46.2061 6.77637C45.4791 7.00933 44.8582 7.30442 44.2372 7.64609C43.6163 8.04989 43.1165 8.51582 42.6016 9.04386C42.1018 9.57191 41.708 10.1465 41.3597 10.7833C41.0265 11.4201 40.7388 12.119 40.5722 12.88C40.4056 13.641 40.2844 14.3865 40.2844 15.1475C40.2844 16.421 40.5116 17.5858 40.9659 18.6419C41.4203 19.6824 42.0261 20.6143 42.8742 21.4374C43.6617 22.245 44.6158 22.8352 45.6306 23.3011C46.6907 23.767 47.8266 24 48.9927 24C50.0528 24 51.0676 23.8292 52.0217 23.4254C52.9758 23.0216 53.8239 22.4314 54.6114 21.7325C54.7175 21.6238 54.8386 21.4995 54.9446 21.3908C55.0506 21.2821 55.1112 21.0957 55.1112 20.9249C55.1112 20.8162 55.1112 20.7541 55.0506 20.6298C55.0506 20.5211 54.9446 20.459 54.8841 20.3347L53.5362 18.704C53.3696 18.5332 53.2484 18.4089 53.1424 18.3623C53.0364 18.3002 52.9152 18.2536 52.8092 18.2536C52.7032 18.2536 52.582 18.2536 52.476 18.3157C52.37 18.3779 52.2488 18.4866 52.1428 18.5487C51.9762 18.7195 51.8097 18.8438 51.5219 19.0146C51.2341 19.1855 50.9615 19.3097 50.6738 19.4184C50.386 19.5271 50.0528 19.5893 49.7197 19.7135C49.3865 19.7756 49.0533 19.8222 48.7655 19.8222C48.4324 19.8222 48.0386 19.7601 47.6448 19.6514C47.2511 19.5427 46.9179 19.4184 46.5241 19.1855C46.1909 18.9525 45.8426 18.6574 45.6306 18.2536C45.3428 17.8498 45.1762 17.3839 45.1308 16.7937H54.46C55.0204 16.7937 55.4141 16.7316 55.7019 16.685C55.9896 16.6229 56.2017 16.5142 56.3228 16.3433C56.4288 16.1725 56.4894 15.9395 56.55 15.6444V14.4486C56.55 13.7497 56.444 13.0508 56.2622 12.3519C55.8988 11.6686 55.6262 11.0163 55.293 10.4416ZM45.1762 12.9421C45.2822 12.647 45.5094 12.3674 45.7366 12.0724C45.9637 11.7773 46.1909 11.4977 46.4635 11.2648C46.7513 11.0318 47.0239 10.861 47.3571 10.6901C47.6903 10.5814 47.978 10.4572 48.3112 10.4572C48.7655 10.4572 49.2047 10.5193 49.5531 10.628C49.8863 10.7367 50.2194 10.9231 50.5072 11.156C50.7949 11.389 51.007 11.622 51.2341 11.9171C51.4613 12.2121 51.6279 12.5538 51.7945 12.911H45.1611V12.9421H45.1762Z" fill="white"/>
<path d="M69.0445 19.3406H62.6382L69.7715 10.6123C69.8321 10.5036 69.8775 10.3794 69.8775 10.2706V9.97556V7.64595C69.8775 7.30427 69.7715 7.07131 69.5443 6.88494C69.3171 6.7141 69.09 6.65198 68.8173 6.65198H57.9736C57.6404 6.65198 57.4133 6.76069 57.2467 6.94706C57.0801 7.1179 56.9589 7.41299 56.9589 7.70807V9.86685C56.9589 10.2706 57.0649 10.5036 57.2467 10.6744C57.4133 10.8453 57.701 10.9695 57.9736 10.9695H64.2587C63.6984 11.6684 63.0774 12.3673 62.4565 13.1283C61.8356 13.8893 61.1692 14.6969 60.5483 15.4579C59.8667 16.2655 59.2609 17.0265 58.64 17.7875C58.0191 18.5486 57.3981 19.294 56.8378 19.9463C56.7318 20.055 56.6712 20.1793 56.6712 20.288C56.6712 20.3967 56.6106 20.521 56.6106 20.6297V22.4934C56.6106 22.6021 56.6106 22.7885 56.6712 22.8972C56.7318 23.0059 56.7772 23.1301 56.8984 23.2388C57.0044 23.3476 57.1255 23.4097 57.2315 23.4718C57.3375 23.5339 57.5193 23.5805 57.6253 23.5805H69.0294C69.196 23.5805 69.3171 23.5184 69.4231 23.4718C69.5292 23.4097 69.6503 23.301 69.7563 23.1767C69.8623 23.068 69.9229 22.9438 69.9835 22.835C70.0441 22.7263 70.0441 22.54 70.0441 22.4312V20.3346C70.0441 19.9929 69.9381 19.6978 69.7563 19.527C69.6049 19.4027 69.3777 19.3406 69.0445 19.3406Z" fill="white"/>
<path d="M101.227 8.57579C100.667 7.87691 99.9854 7.34886 99.2131 6.94506C98.4255 6.54126 97.532 6.37042 96.5173 6.37042C95.8509 6.37042 95.23 6.47914 94.715 6.66551C94.2153 6.89847 93.7609 7.13143 93.3671 7.42652C92.9734 7.7216 92.6856 8.06328 92.413 8.42049C92.1858 8.76216 91.9587 9.05725 91.8527 9.35233L91.4589 7.65948C91.3983 7.55076 91.3529 7.42652 91.3529 7.25568C91.2923 7.14696 91.2469 7.02272 91.1863 6.914C91.1257 6.80528 91.0197 6.74316 90.8985 6.68104C90.7925 6.61891 90.6714 6.61891 90.5048 6.61891H88.5359C88.4299 6.61891 88.3088 6.61891 88.2028 6.68104C88.0967 6.68104 87.9756 6.78975 87.8696 6.85188L87.9301 6.78975C87.8241 6.85188 87.703 6.96059 87.6424 7.13143C87.5818 7.24015 87.5364 7.42652 87.5364 7.59735V22.6622C87.5364 22.9573 87.597 23.2369 87.7635 23.4232C87.9301 23.5941 88.2179 23.7183 88.5511 23.7183H91.474C91.5801 23.7183 91.7012 23.7183 91.8072 23.6562C91.9132 23.6562 92.0344 23.5941 92.1404 23.4853C92.2464 23.4232 92.307 23.3145 92.3676 23.1437C92.4282 22.9728 92.4282 22.8486 92.4282 22.6777V13.9339C92.4282 13.5301 92.5342 13.1729 92.7613 12.8312C92.9279 12.4895 93.1551 12.1945 93.4429 11.9615C93.7306 11.7285 94.0032 11.4956 94.3364 11.3869C94.6696 11.2781 94.9574 11.1539 95.2905 11.1539C95.6237 11.1539 96.0175 11.216 96.3507 11.3869C96.6839 11.5577 97.0322 11.7285 97.3048 12.0236C97.5926 12.3187 97.8046 12.5983 97.9712 12.9555C98.1378 13.3127 98.1984 13.6544 98.1984 14.0582V22.7865C98.1984 23.1281 98.2589 23.4232 98.4255 23.5475C98.5315 23.6562 98.8193 23.7183 99.2131 23.7183H102.197C102.53 23.7183 102.757 23.6562 102.863 23.4853C103.03 23.3145 103.09 23.0815 103.09 22.7243V13.8718C103.09 12.8312 102.924 11.8994 102.636 10.9675C102.242 10.0823 101.788 9.27468 101.227 8.57579Z" fill="white"/>
<path d="M119.643 12.3674C119.477 11.6686 119.189 11.0939 118.795 10.4416C118.462 9.86699 118.008 9.27682 117.508 8.8109C117.008 8.28286 116.493 7.87905 115.872 7.53738C115.251 7.1957 114.63 6.90062 113.964 6.72978C113.282 6.55894 112.616 6.43469 111.889 6.43469C111.102 6.43469 110.375 6.54341 109.648 6.77637C108.921 7.00933 108.3 7.30442 107.679 7.64609C107.058 8.04989 106.558 8.51582 106.043 9.04386C105.543 9.57191 105.15 10.1465 104.801 10.7833C104.468 11.4201 104.18 12.119 104.014 12.88C103.847 13.641 103.726 14.3865 103.726 15.1475C103.726 16.421 103.953 17.5858 104.408 18.6419C104.862 19.6824 105.468 20.6143 106.316 21.4374C107.103 22.245 108.057 22.8352 109.072 23.3011C110.132 23.767 111.268 24 112.434 24C113.495 24 114.509 23.8292 115.463 23.4254C116.417 23.0216 117.266 22.4314 118.053 21.7325C118.159 21.6238 118.28 21.4995 118.386 21.3908C118.492 21.2821 118.553 21.0957 118.553 20.9249C118.553 20.8162 118.553 20.7541 118.492 20.6298C118.492 20.5211 118.386 20.459 118.326 20.3347L116.978 18.704C116.811 18.5332 116.69 18.4089 116.584 18.3623C116.478 18.3002 116.357 18.2536 116.251 18.2536C116.145 18.2536 116.024 18.2536 115.918 18.3157C115.812 18.3779 115.691 18.4866 115.584 18.5487C115.418 18.7195 115.251 18.8438 114.964 19.0146C114.676 19.1855 114.403 19.3097 114.115 19.4184C113.828 19.5271 113.494 19.5893 113.161 19.7135C112.828 19.7756 112.48 19.8222 112.207 19.8222C111.874 19.8222 111.48 19.7601 111.086 19.6514C110.693 19.5427 110.36 19.4184 109.966 19.1855C109.633 18.9525 109.299 18.6574 109.072 18.2536C108.784 17.8498 108.618 17.3839 108.572 16.7937H117.902C118.462 16.7937 118.856 16.7316 119.144 16.685C119.431 16.6229 119.643 16.5142 119.764 16.3433C119.87 16.1725 119.931 15.9395 119.992 15.6444V14.4486C119.931 13.7031 119.87 13.0042 119.643 12.3674ZM108.754 12.9421C108.86 12.647 109.087 12.3674 109.315 12.0724C109.542 11.7773 109.769 11.4977 110.041 11.2648C110.329 11.0318 110.602 10.861 110.935 10.6901C111.268 10.5814 111.556 10.4572 111.889 10.4572C112.343 10.4572 112.783 10.5193 113.131 10.628C113.464 10.7367 113.813 10.9231 114.085 11.156C114.373 11.389 114.585 11.622 114.812 11.9171C115.039 12.2121 115.206 12.5538 115.372 12.911H108.739V12.9421H108.754Z" fill="white"/>
<path d="M84.8255 9.80487C86.5066 8.4071 86.4611 6.43469 86.4611 6.43469H78.3132H78.1466C77.3591 6.43469 76.5715 6.54341 75.8446 6.72978C75.1176 6.96274 74.4361 7.25782 73.8303 7.5995C73.2094 7.94118 72.649 8.4071 72.1493 8.93515C71.6495 9.46319 71.1951 10.0378 70.8619 10.6746C70.4682 11.3114 70.1956 12.0102 70.0138 12.7712C69.7867 13.5323 69.7261 14.3399 69.7261 15.163C69.7261 15.9861 69.8321 16.7937 70.0138 17.5547C70.241 18.3157 70.5136 19.0146 70.8619 19.6514C71.2557 20.2881 71.6495 20.8783 72.1493 21.3908C72.649 21.9189 73.2094 22.3848 73.8303 22.7265C74.4513 23.1303 75.1176 23.4254 75.8446 23.5962C76.5715 23.8292 77.2985 23.8913 78.1466 23.8913C78.9341 23.8913 79.6611 23.7826 80.388 23.5962C81.115 23.3632 81.7965 23.0682 82.4023 22.7265C83.0232 22.3227 83.5836 21.9189 84.0834 21.3908C84.5832 20.8628 85.0375 20.2881 85.3707 19.6514C85.7645 19.0146 86.0371 18.3157 86.2188 17.5547C86.446 16.7937 86.5066 16.0482 86.5066 15.163C86.5066 13.9361 86.2794 12.7713 85.8402 11.7307C85.6736 11.0163 85.2798 10.3795 84.8255 9.80487ZM81.5088 16.8403C81.3422 17.3684 81.115 17.7722 80.7818 18.176C80.4486 18.5176 80.1003 18.8748 79.6611 19.0457C79.2068 19.2786 78.707 19.3874 78.1466 19.3874C77.5863 19.3874 77.0259 19.2786 76.5715 19.0457C76.1172 18.8127 75.7234 18.5176 75.3902 18.176C75.0571 17.8343 74.8299 17.3684 74.6633 16.8403C74.4967 16.3123 74.3755 15.7998 74.3755 15.2096C74.3755 14.6349 74.4816 14.1069 74.6633 13.5789C74.8299 13.0508 75.1176 12.5849 75.3902 12.2432C75.7234 11.8394 76.1172 11.5443 76.5715 11.3114C77.0259 11.0784 77.5257 10.9697 78.1466 10.9697C78.707 10.9697 79.2068 11.0784 79.6611 11.3114C80.1154 11.5443 80.5092 11.8394 80.7818 12.2432C81.115 12.647 81.3422 13.1129 81.5088 13.5789C81.6754 14.1069 81.7359 14.6194 81.7359 15.2096C81.7359 15.7842 81.6754 16.3123 81.5088 16.8403Z" fill="white"/>
<path d="M12.7829 1.14319H12.9192C13.1464 1.14319 13.3433 1.32956 13.3433 1.57805V22.4359C13.3433 22.6689 13.1616 22.8708 12.9192 22.8708H12.7829C12.5558 22.8708 12.3589 22.6844 12.3589 22.4359V1.56252C12.3589 1.32956 12.5558 1.14319 12.7829 1.14319Z" fill="black"/>
<path d="M14.812 4.83447H14.9483C15.1755 4.83447 15.3724 5.02084 15.3724 5.26933V18.6258C15.3724 18.8588 15.1906 19.0607 14.9483 19.0607H14.812C14.5848 19.0607 14.3879 18.8743 14.3879 18.6258V5.26933C14.3879 5.03637 14.5697 4.83447 14.812 4.83447Z" fill="black"/>
<path d="M8.70799 7.11823H8.84429C9.07147 7.11823 9.26835 7.30459 9.26835 7.55309V18.6265C9.26835 18.8595 9.08661 19.0614 8.84429 19.0614H8.70799C8.48082 19.0614 8.28394 18.875 8.28394 18.6265V7.55309C8.28394 7.32013 8.48082 7.11823 8.70799 7.11823Z" fill="black"/>
<path d="M10.7224 3.8775H10.9344C11.1616 3.8775 11.3585 4.06387 11.3585 4.31236V20.278C11.3585 20.511 11.1767 20.7129 10.9344 20.7129H10.7224C10.4952 20.7129 10.2983 20.5265 10.2983 20.278V4.31236C10.3135 4.06387 10.4952 3.8775 10.7224 3.8775Z" fill="black"/>
<path d="M16.8257 9.1767H16.962C17.1891 9.1767 17.386 9.36307 17.386 9.61156V14.3484C17.386 14.5814 17.2043 14.7833 16.962 14.7833H16.8257C16.5985 14.7833 16.4016 14.5969 16.4016 14.3484V9.61156C16.4168 9.36307 16.5985 9.1767 16.8257 9.1767Z" fill="black"/>
<path d="M6.69456 9.1767H6.83087C7.05804 9.1767 7.25492 9.36307 7.25492 9.61156V14.3484C7.25492 14.5814 7.07318 14.7833 6.83087 14.7833H6.69456C6.46739 14.7833 6.27051 14.5969 6.27051 14.3484V9.61156C6.27051 9.36307 6.45225 9.1767 6.69456 9.1767Z" fill="black"/>
<path d="M18.886 10.2865H19.0223C19.2494 10.2865 19.4463 10.4729 19.4463 10.7214V13.1442C19.4463 13.3771 19.2646 13.579 19.0223 13.579H18.886C18.6588 13.579 18.4619 13.3927 18.4619 13.1442V10.7214C18.4619 10.4884 18.6588 10.2865 18.886 10.2865Z" fill="black"/>
<path d="M4.66429 10.2865H4.80059C5.02777 10.2865 5.22465 10.4729 5.22465 10.7214V13.1442C5.22465 13.3771 5.04291 13.579 4.80059 13.579H4.66429C4.43712 13.579 4.24023 13.3927 4.24023 13.1442V10.7214C4.24023 10.4884 4.43712 10.2865 4.66429 10.2865Z" fill="black"/>
<path d="M20.8996 11.5972H21.0359C21.2631 11.5972 21.46 11.7836 21.46 12.0321V12.3582C21.46 12.5912 21.2783 12.7931 21.0359 12.7931H20.8996C20.6725 12.7931 20.4756 12.6067 20.4756 12.3582V12.0321C20.4907 11.7991 20.6725 11.5972 20.8996 11.5972Z" fill="black"/>
<path d="M2.63524 11.5972H2.77154C2.99871 11.5972 3.1956 11.7836 3.1956 12.0321V12.3582C3.1956 12.5912 3.01386 12.7931 2.77154 12.7931H2.63524C2.40806 12.7931 2.21118 12.6067 2.21118 12.3582V12.0321C2.22633 11.7991 2.40806 11.5972 2.63524 11.5972Z" fill="black"/>
</svg>
