<svg width="112" height="24" viewBox="0 0 112 24" fill="none" xmlns="http://www.w3.org/2000/svg">
<path d="M111.923 10.9596C111.459 12.1553 111.015 13.3702 110.552 14.5659C109.606 17.0536 108.64 19.522 107.675 22.0098C107.636 22.1255 107.578 22.2219 107.52 22.3376C107.405 22.5883 107.231 22.704 106.941 22.704C106.362 22.6847 105.763 22.6847 105.184 22.704C104.894 22.704 104.74 22.6076 104.624 22.3569C104.296 21.6434 104.045 20.8912 103.755 20.1584C102.906 17.9407 102.056 15.7422 101.207 13.5245C101.149 13.3702 101.071 13.3316 100.936 13.3316C100.647 13.3509 100.338 13.3509 100.048 13.3316C99.8357 13.3123 99.7971 13.3895 99.7971 13.5823C99.7971 15.9158 99.7971 18.2492 99.7971 20.5827C99.7971 21.1419 99.7971 21.6819 99.7971 22.2412C99.7971 22.5497 99.6619 22.6847 99.353 22.6847C98.5999 22.6847 97.8662 22.6847 97.1132 22.6847C96.727 22.6847 96.6112 22.569 96.6112 22.1833C96.6112 19.3292 96.6112 16.475 96.6112 13.6016C96.6112 13.3702 96.5726 13.3123 96.3216 13.3123C95.5106 13.3316 94.6997 13.3123 93.8887 13.3123C93.5218 13.3123 93.406 13.1966 93.406 12.8302C93.406 12.1938 93.406 11.5574 93.406 10.921C93.406 10.5932 93.5218 10.4775 93.8308 10.4775C96.9201 10.4775 99.9902 10.4775 103.08 10.4775C103.369 10.4775 103.485 10.5739 103.601 10.9018C104.161 12.5795 104.721 14.2766 105.3 15.9544C105.551 16.6872 105.802 17.42 106.053 18.1914C106.169 18.095 106.169 17.9792 106.207 17.8828C106.883 15.8386 107.559 13.8137 108.235 11.7696C108.331 11.4417 108.467 11.1332 108.563 10.8246C108.64 10.5932 108.795 10.4968 109.046 10.4968C109.895 10.4968 110.745 10.4968 111.595 10.4968C111.73 10.4968 111.846 10.5353 111.942 10.6318C111.961 10.651 111.981 10.6703 112 10.6896C112 10.7282 112 10.786 112 10.8246C111.981 10.9017 111.961 10.921 111.923 10.9596Z" fill="#FEFEFE"/>
<path d="M15.9212 0.102213H15.7089C15.9522 0.174216 16.4097 0.353799 16.5535 0.396981C17.6734 0.724822 18.4679 1.09688 19.4913 1.65614L20.2992 2.18181C20.1989 2.16435 19.9843 2.12902 19.9275 2.12674C18.9076 2.08904 17.9067 2.1663 16.9059 2.35853C15.6895 2.58995 14.531 2.99493 13.4497 3.59275C12.5615 4.09416 11.7313 4.6727 11.0168 5.4248C10.7851 5.65622 10.8045 5.73336 11.1327 5.79121C11.6926 5.90692 12.2333 6.08048 12.7353 6.33118C14.222 7.04472 15.5157 8.00896 16.5777 9.2239C17.2149 9.976 17.7748 10.7667 18.0258 11.7116C18.4699 13.428 18.5858 15.1636 18.3541 16.9185C18.2189 18.0949 17.9486 19.2327 17.5238 20.3319C17.1183 21.3733 16.6356 22.3568 15.9212 23.2246C15.7362 23.3985 15.2854 23.7855 14.9622 23.9419L15.7281 23.7839C17.0025 23.4946 18.1803 22.9546 19.2809 22.2411C21.0765 21.0647 22.5826 19.6184 23.548 17.6899C24.861 15.0865 25.2665 12.348 24.7065 9.49388C24.3783 7.77754 23.7411 6.19619 22.6212 4.82697C22.5054 4.69198 22.5826 4.63413 22.6598 4.5377C23.2005 3.99773 23.6446 3.38062 24.0114 2.70565C24.359 2.03069 24.61 1.33644 24.5714 0.565047C24.5521 0.179352 24.5714 0.179352 24.1852 0.179352C24.0887 0.179352 23.9921 0.160068 23.8956 0.160068C21.2504 0.140783 18.5857 0.121499 15.9212 0.102213Z" fill="#FEFEFE"/>
<path d="M2.94593 19.9655C2.36668 19.3484 1.84535 18.6734 1.43987 17.9213C0.706154 16.5714 0.281369 15.125 0.107593 13.6208C-0.201342 11.3259 0.165518 9.14677 1.07301 7.04473C1.92259 5.0584 3.29348 3.49634 5.05055 2.26212C5.97736 1.62572 6.92347 1.02789 8.00474 0.661482C8.42953 0.526489 8.85431 0.41078 9.2791 0.314357C9.2791 0.41078 9.18256 0.41078 9.16325 0.487919C9.16325 0.545773 9.12463 0.584343 9.08601 0.642197C8.06267 1.79928 7.46411 3.18778 7.02001 4.65342C6.73039 5.55981 6.55661 6.50476 6.46007 7.469C6.28629 9.22391 6.38283 10.9403 6.92347 12.6373C7.13586 13.3316 7.52203 13.9294 7.96613 14.4886C9.10532 15.935 10.5148 17.0342 12.1754 17.8442C12.6581 18.0756 13.1794 18.2492 13.7007 18.3649C13.7973 18.3842 13.9324 18.3842 13.9517 18.4999C13.9711 18.5963 13.8745 18.6734 13.7973 18.7313C12.465 19.9462 10.9589 20.8526 9.24048 21.3926C7.83097 21.8361 6.44076 21.9133 5.03124 21.3926C4.29752 21.1226 3.62173 20.7176 3.08109 20.1198C3.02317 20.0812 2.96524 20.0234 2.94593 19.9655Z" fill="#FEFEFE"/>
<path d="M29.804 15.2601C30.2481 14.6623 30.7115 14.0644 31.1556 13.4473C31.7734 12.6181 32.3913 11.7888 33.0092 10.9596C33.2216 10.651 33.4919 10.5353 33.8587 10.5353C34.7276 10.5546 35.5965 10.5353 36.4654 10.5353C36.6585 10.5353 36.8709 10.5353 36.9674 10.7475C37.0639 10.9789 36.9674 11.1524 36.8322 11.3067C35.5965 12.8495 34.3608 14.3923 33.1057 15.9351C33.0092 16.07 32.9899 16.1279 33.1057 16.2629C34.5538 17.9214 35.9827 19.5606 37.4115 21.2191C37.566 21.3926 37.7204 21.5662 37.8556 21.759C37.9714 21.894 37.9714 22.0483 37.9135 22.2026C37.8556 22.3569 37.7204 22.3954 37.5853 22.3954C36.5233 22.3954 35.442 22.3954 34.3801 22.3954C34.187 22.3954 34.0518 22.2604 33.9553 22.1255C32.9706 20.9491 32.0051 19.7534 31.0397 18.5771C30.8466 18.3456 30.8466 18.3456 30.6342 18.5578C30.3639 18.8278 29.9971 19.0592 29.8619 19.4063C29.7267 19.7341 29.8233 20.1391 29.8233 20.5248C29.804 20.9684 29.8619 21.4312 29.7847 21.8748C29.7267 22.2412 29.5337 22.4147 29.1668 22.4147C28.4524 22.4147 27.7187 22.4147 27.0042 22.4147C26.676 22.4147 26.3671 22.1062 26.3478 21.7783C26.3478 21.7012 26.3478 21.6433 26.3478 21.5662C26.3478 18.0949 26.3478 14.6237 26.3478 11.1332C26.3478 10.6703 26.4829 10.5353 26.927 10.5353C27.6607 10.5353 28.4138 10.5546 29.1475 10.5353C29.553 10.5353 29.7654 10.6896 29.7847 11.191C29.804 12.4445 29.7847 13.7173 29.7847 14.9708C29.7847 15.0672 29.7847 15.1444 29.7847 15.2408C29.7847 15.2601 29.804 15.2601 29.804 15.2601Z" fill="#FEFEFE"/>
<path d="M73.5955 12.5216C73.8079 12.2324 73.9624 11.9624 74.1748 11.7309C74.7926 11.0367 75.5843 10.651 76.5111 10.5739C78.4805 10.4196 79.8707 11.3067 80.8362 12.9845C81.2996 13.7944 81.4927 14.6622 81.512 15.5686C81.5313 17.6321 81.512 19.6955 81.512 21.759C81.512 22.2604 81.3382 22.434 80.8362 22.434C80.1411 22.434 79.446 22.434 78.7315 22.434C78.1909 22.434 78.0751 22.3183 78.0751 21.759C78.0751 19.8498 78.0557 17.9214 78.0751 16.0122C78.0944 14.9322 77.3993 14.2187 76.6269 13.9294C75.8546 13.6401 74.8505 14.0258 74.3292 14.7779C74.0975 15.1251 73.9624 15.5108 73.9817 15.9543C74.001 17.8635 73.9817 19.7727 73.9817 21.6819C73.9817 22.2411 73.7886 22.434 73.2479 22.434C72.5915 22.434 71.935 22.434 71.2785 22.434C70.7572 22.434 70.5641 22.2411 70.5641 21.7204C70.5641 18.2878 70.5641 14.8551 70.5641 11.4417C70.5641 10.9596 70.8151 10.7281 71.2978 10.7281C71.7419 10.7281 72.186 10.7281 72.6301 10.7281C73.0163 10.7281 73.1707 10.8439 73.2673 11.2295C73.3445 11.6345 73.4603 12.0588 73.5955 12.5216Z" fill="#FEFEFE"/>
<path d="M53.032 19.4449C53.1672 19.4449 53.2444 19.4449 53.341 19.4449C54.6926 19.4449 56.0441 19.4449 57.3957 19.4449C57.4923 19.4449 57.6081 19.4449 57.7047 19.4641C58.0522 19.522 58.1874 19.6184 58.226 19.9655C58.2839 20.5441 58.2839 21.1419 58.226 21.7205C58.2067 22.0676 57.8205 22.3761 57.473 22.3761C54.847 22.3761 52.2211 22.3761 49.5758 22.3761C49.0931 22.3761 48.7842 22.0676 48.7842 21.5855C48.7842 21.1419 48.7842 20.6791 48.8035 20.2355C48.8035 20.0813 48.8807 19.9463 48.9773 19.8306C50.6764 17.8442 52.3755 15.8386 54.0747 13.833C54.094 13.8137 54.1133 13.7751 54.1519 13.7173C54.0361 13.7173 53.9588 13.7173 53.8623 13.7173C52.5107 13.7173 51.1591 13.7173 49.8075 13.7173C49.2669 13.7173 49.0159 13.4666 49.0159 12.9266C49.0159 12.4445 49.0159 11.9817 49.0159 11.4995C49.0159 11.0174 49.2669 10.7667 49.7496 10.7667C52.2983 10.7667 54.8277 10.7667 57.3764 10.7667C57.8784 10.7667 58.1102 11.0174 58.1102 11.4995C58.1102 12.0202 58.1102 12.5602 58.1102 13.0809C58.1102 13.2737 58.0522 13.428 57.9171 13.5823C56.3145 15.4722 54.7312 17.3814 53.1286 19.2713C53.1093 19.3099 53.09 19.3484 53.032 19.4449Z" fill="#FEFEFE"/>
<path d="M12.9863 0.00582458C11.905 -0.0327449 10.8431 0.121533 9.78111 0.430089C9.56871 0.468658 9.47217 0.661506 9.33701 0.777214C8.42951 1.95358 7.85026 3.30352 7.42548 4.7113C6.96207 6.29265 6.76899 7.89328 6.82691 9.53249C6.82691 9.70605 6.84622 9.87961 6.92346 10.0532C7.05862 10.0725 7.03931 9.93747 7.05862 9.86033C7.29032 9.0118 7.56064 8.18256 8.02404 7.43045C8.6226 6.36979 9.37563 5.42484 10.2638 4.59559C11.1906 3.74706 12.1947 3.05281 13.3339 2.55141C15.033 1.79931 16.7901 1.60646 18.6244 1.81859C18.5951 1.80928 18.8548 1.85666 20.1278 2.12072L19.3002 1.74146C17.852 1.10507 17.1569 0.71936 15.6123 0.31438C15.2043 0.234795 14.7462 0.118081 14.1448 0.0829635C13.7586 0.0636788 13.3725 0.0251093 12.9863 0.00582458Z" fill="#FEFEFE"/>
<path d="M11.5768 23.9961C12.8125 24.0346 14.0097 23.7839 15.2068 23.4754C15.3806 23.4754 15.4385 23.3404 15.535 23.2825C16.8094 21.5662 17.4852 19.6377 17.8327 17.555C17.9293 16.9186 17.9679 16.3015 18.0065 15.6651C18.0451 15.1829 18.0451 14.7008 17.9293 14.238C17.7941 14.2766 17.7941 14.2766 17.7555 14.4501C17.4273 15.7229 16.8287 16.88 16.0564 17.9407C15.6702 18.4806 15.2068 18.9435 14.7434 19.4063C14.0869 20.0427 13.3339 20.5827 12.5229 21.0069C11.2293 21.6819 9.83905 22.0869 8.39091 22.2604C7.73443 22.3376 7.07794 22.3376 6.40214 22.2797C5.88113 22.2104 4.75341 21.9983 4.41066 21.7049C4.4389 21.7668 4.54075 21.9221 4.72231 22.0483C4.99024 22.2192 5.89438 22.6782 7.36757 23.1475C8.73847 23.6104 10.1287 23.9575 11.5768 23.9961Z" fill="#FEFEFE"/>
<path d="M69.7531 15.6264C69.618 14.7201 69.3283 13.8715 68.7877 13.1194C68.6719 12.9459 68.6719 12.8687 68.8263 12.7337C69.3863 12.2323 69.6759 11.5766 69.7724 10.8438C69.7917 10.651 69.7531 10.5738 69.5407 10.5738C68.5174 10.5931 67.4747 10.5738 66.4514 10.5738C65.6404 10.5738 64.8295 10.5738 64.0185 10.5738C62.8407 10.5738 61.7208 10.8245 60.7361 11.4609C58.8825 12.6566 57.975 14.3729 57.975 16.5714C57.975 17.6706 58.2067 18.7313 58.8052 19.6762C60.1182 21.7976 62.0491 22.7618 64.5205 22.5111C66.7024 22.299 68.2857 21.1612 69.2704 19.1941C69.8304 18.0756 69.9462 16.8607 69.7531 15.6264ZM66.4514 16.5521C66.4707 17.4006 66.2583 18.0949 65.737 18.6927C64.8681 19.6569 63.3234 19.7148 62.2808 18.9048C61.6822 18.4227 61.4119 17.7863 61.3153 17.0535C61.1802 16.0893 61.3926 15.1829 62.0684 14.4694C62.7442 13.7558 63.5937 13.5244 64.5398 13.7558C65.5246 14.0065 66.0652 14.7201 66.3548 15.6457C66.4514 15.9736 66.4707 16.3014 66.4514 16.5521Z" fill="#FEFEFE"/>
<path d="M93.3094 15.125C92.9232 13.3315 91.8806 12.0202 90.2587 11.2102C88.2506 10.2074 86.2425 10.3617 84.4468 11.6731C82.3229 13.2158 81.6471 15.395 82.1298 17.902C82.6705 20.6212 85.2192 22.6075 87.9996 22.6461C89.6794 22.6654 91.0889 22.0675 92.2667 20.8912C92.4791 20.679 92.4985 20.409 92.3054 20.1776C91.9771 19.7727 91.6489 19.3677 91.3013 18.982C90.9731 18.6156 90.7028 18.6156 90.2973 18.9241C89.2353 19.7148 88.0575 20.0234 86.7638 19.5219C86.0301 19.2327 85.6053 18.6927 85.4123 17.9406C85.3736 17.767 85.393 17.6899 85.6053 17.6899C86.7059 17.7092 87.8065 17.6899 88.9071 17.6899C89.9111 17.6899 90.9152 17.6899 91.9192 17.6899C92.2088 17.6899 92.4985 17.6513 92.7881 17.6128C93.1356 17.5549 93.3287 17.3813 93.3673 17.0342C93.4832 16.3978 93.4446 15.7614 93.3094 15.125ZM89.9497 15.0093C89.2546 15.0093 88.5595 15.0093 87.8451 15.0093C87.15 15.0093 86.4549 15.0093 85.7791 15.0093C85.7019 15.0093 85.6246 15.0479 85.586 14.9708C85.5474 14.8936 85.6247 14.8358 85.6633 14.7779C86.0687 14.1994 86.5128 13.6594 87.2079 13.4473C87.9996 13.1966 88.714 13.3701 89.3512 13.8908C89.6601 14.1415 89.8918 14.4501 90.0849 14.8165C90.1621 14.9708 90.1621 15.0093 89.9497 15.0093Z" fill="#FEFEFE"/>
<path d="M48.6683 15.7036C48.649 15.3372 48.6104 14.9708 48.4752 14.6429C48.0698 13.7558 47.6257 12.9073 46.9112 12.2131C45.0963 10.4196 42.2386 9.99531 39.9216 11.5188C37.4694 13.1194 36.8322 16.0122 37.508 18.3263C38.0101 20.0619 39.1686 21.2962 40.7905 22.0676C42.8951 23.0704 45.5404 22.8775 47.4905 20.9683C47.7801 20.6791 47.7994 20.4284 47.5291 20.1198C47.2202 19.7534 46.9112 19.387 46.583 19.0206C46.2355 18.6156 45.9844 18.6349 45.5403 18.9434C44.5749 19.657 43.513 19.9655 42.3351 19.6377C41.4663 19.387 40.9063 18.847 40.6939 17.9599C40.6553 17.7863 40.6746 17.7092 40.887 17.7092C41.9876 17.7285 43.0882 17.7092 44.1888 17.7092C45.1928 17.7092 46.1775 17.7092 47.1816 17.7092C47.4905 17.7092 47.7994 17.6706 48.1084 17.6128C48.398 17.5549 48.5911 17.4007 48.649 17.0921C48.7262 16.6293 48.7069 16.1664 48.6683 15.7036ZM45.1349 15.0093C44.517 15.0093 43.9184 15.0093 43.3006 15.0093C42.451 15.0093 41.6014 15.0093 40.7132 15.0093C41.4663 13.6401 42.6248 12.9652 43.9957 13.5437C44.5942 13.7944 44.9804 14.2765 45.27 14.8358C45.3666 15.0286 45.2507 15.0093 45.1349 15.0093Z" fill="#FEFEFE"/>
</svg>
