<svg width="142" height="94" viewBox="0 0 142 94" fill="none" xmlns="http://www.w3.org/2000/svg">
<rect width="142" height="94" rx="10" fill="white"/>
<path d="M78.4659 40.2719V35.0253C75.7934 35.0253 73.0629 35.0253 70.3323 35.0253C69.1123 35.0253 67.9503 34.9683 66.7884 35.0253C64.5807 35.1964 62.8378 35.8237 61.3853 36.6792C60.1072 37.4775 59.0034 38.447 58.19 39.5876C58.0738 39.7016 58.0157 39.8727 57.8995 39.9868C57.7833 39.7587 57.6671 39.4735 57.5509 39.2454C56.7376 37.7057 55.4594 36.5081 53.8908 35.7667C52.5546 35.3105 50.986 35.1394 49.3011 35.0824C48.4878 35.0824 47.6744 35.0253 46.803 35.0253C45.4667 35.0253 44.1305 35.0253 42.7943 35.0253H40.0637H38.4951H38.1465C38.1465 35.0253 38.1465 35.0253 38.2046 35.0824C38.3208 35.1964 38.437 35.3675 38.5532 35.5386C38.7856 35.9378 38.9599 36.337 39.1341 36.7362C39.4246 37.4775 39.5989 38.447 39.657 39.0173C39.657 39.2454 39.5989 39.3024 39.657 39.5876C39.8313 39.5305 40.0056 39.4735 40.1218 39.4165C40.3542 39.3024 40.5866 39.1884 40.819 39.1314C42.0971 38.7322 43.6657 38.504 45.4086 38.504C47.1515 38.504 48.8944 38.6751 50.2307 39.3024C50.6374 39.4735 51.2183 39.8727 51.3926 40.386C51.1021 40.443 48.3716 40.3289 47.5001 40.386C48.1392 41.9257 49.9983 41.7546 53.3679 41.7546C54.007 41.7546 54.4718 41.7546 54.9366 41.9257C55.4013 42.0968 55.808 42.2679 56.1566 42.61C56.6795 43.1233 57.2604 44.0928 57.2023 45.0052C57.2023 45.1193 57.2024 45.2904 57.1443 45.2904C57.0862 45.2904 56.9119 45.1193 56.7957 45.0623C55.9823 44.4349 54.7042 44.4349 53.5422 44.492C52.3222 44.549 51.1021 44.7771 49.9983 45.1193C47.8487 45.7466 46.0477 46.4879 44.3629 47.4574C43.84 47.7996 43.3171 48.1418 42.7943 48.4269C42.4457 48.712 42.039 48.9402 41.6904 49.2253C41.5742 49.2823 41.3999 49.3964 41.3999 49.5675C41.3999 49.7956 41.6323 50.1947 41.7485 50.4799C42.1552 51.3353 42.5619 52.1337 43.0266 52.8181C43.6657 53.7875 44.421 54.6429 45.1762 55.3843C46.6287 56.867 48.3135 58.0076 50.1145 58.9771H59.991C59.991 58.863 53.1936 56.4108 49.9402 51.3924C49.8821 51.2783 49.8821 51.1642 49.824 51.1072C49.9983 51.1072 50.2307 51.1072 50.405 51.1072C52.3803 51.1072 54.1813 50.4229 55.5756 49.2823C58.3643 59.9465 69.3446 58.9771 72.0171 58.9771H77.7687H78.524V52.647C76.5487 52.647 74.5734 52.647 72.5981 52.647C71.7266 52.647 70.9133 52.704 70.0999 52.5899C69.7513 52.5329 63.5349 52.0767 63.5349 47.1723C63.5349 45.5755 64.1159 44.4349 64.9293 43.5795C65.3359 43.1233 65.8007 42.7811 66.3817 42.496C66.9627 42.2109 67.5436 42.0398 68.2989 41.8687C68.4732 41.8117 68.8218 41.8117 69.0542 41.8117H78.524L78.4659 40.2719Z" fill="#034EA1"/>
<path d="M45.35 58.8056C44.5947 58.3494 43.8976 57.8362 43.2004 57.2659C42.0385 56.2964 40.9346 55.1558 40.0051 53.8442C39.7727 53.5591 39.5984 53.2169 39.4241 52.9318C39.0755 52.3045 38.7269 51.6772 38.4364 50.9358C38.2621 50.4796 38.0879 49.9663 37.9136 49.5101C37.565 48.3125 37.2745 47.1149 37.1002 46.0314C36.9259 44.9478 36.8678 43.8643 36.7516 42.8378C36.6935 42.3246 36.6935 41.8113 36.6354 41.2981C36.6354 40.7848 36.5773 40.2716 36.5192 39.7583C36.4611 38.6748 36.1125 37.021 35.4735 36.1085C35.0668 35.5953 34.4858 35.2531 33.8468 35.082H33.7887H31V58.9197H33.7887V58.9767H42.387H43.9557C43.9557 58.9767 43.9557 58.9767 43.8976 58.9197L45.35 58.8056C45.4081 58.8627 45.4081 58.8627 45.35 58.8056Z" fill="#034EA1"/>
<path d="M111 35.026H103.68V58.8636H111V35.026Z" fill="#034EA1"/>
<path d="M102.46 35.026H94.7332H87.413H79.7441V41.6412H87.413V58.8636H94.7332V41.6412H102.46V35.026Z" fill="#034EA1"/>
<path d="M111 40.2709H103.68V41.6395H111V40.2709Z" fill="#EC1C24"/>
<path d="M102.402 40.2709H79.7441V41.6395H102.402V40.2709Z" fill="#EC1C24"/>
<path d="M54.6454 40.2709H47.6738C47.6157 40.2709 47.4995 40.2709 47.4414 40.2709C47.79 41.2403 48.8357 41.5255 50.0558 41.6395H54.9359H78.2329H78.4072H78.4653V41.4114V41.2403V40.2709H54.7616H54.6454Z" fill="#EC1C24"/>
</svg>
