<svg width="32" height="32" viewBox="0 0 32 32" fill="none" xmlns="http://www.w3.org/2000/svg">
<rect width="32" height="32" rx="5" fill="#85D8F8"/>
<path d="M25.6001 10.6052C25.064 11.3652 24.394 12.0421 23.6264 12.5883C23.6386 12.7546 23.6386 12.9208 23.6386 13.0871C23.6386 18.1577 19.6792 24.0002 12.4427 24.0002C10.2133 24.0002 8.14219 23.3708 6.40005 22.2783C6.71681 22.314 7.02137 22.3258 7.35031 22.3258C9.1899 22.3258 10.8833 21.7202 12.2356 20.6871C10.5056 20.6515 9.05589 19.5471 8.5564 18.0271C8.80005 18.0627 9.04371 18.0865 9.29955 18.0865C9.65285 18.0865 10.0061 18.039 10.3351 17.9558C8.53203 17.5996 7.17975 16.0558 7.17975 14.1915C7.17975 14.1796 7.17975 14.1558 7.17975 14.144C7.70361 14.429 8.31275 14.6071 8.95843 14.6308C7.89853 13.9421 7.20412 12.7665 7.20412 11.4365C7.20412 10.724 7.39904 10.0708 7.74016 9.50084C9.67721 11.8283 12.5889 13.3483 15.8539 13.5146C15.7929 13.2296 15.7564 12.9327 15.7564 12.6358C15.7564 10.5221 17.5107 8.80022 19.6914 8.80022C20.8244 8.80022 21.8478 9.26334 22.5666 10.0115C23.4559 9.84522 24.3087 9.52459 25.064 9.08522C24.7716 9.97584 24.1503 10.724 23.3341 11.199C24.1259 11.1158 24.8935 10.9021 25.6001 10.6052Z" fill="white"/>
</svg>
