<svg width="32" height="32" viewBox="0 0 32 32" fill="none" xmlns="http://www.w3.org/2000/svg">
<rect width="32" height="32" rx="5" fill="#8A8A8A"/>
<path d="M14.303 16.8485C14.6674 17.3356 15.1323 17.7387 15.6662 18.0304C16.2 18.3221 16.7904 18.4955 17.3972 18.539C18.0039 18.5824 18.613 18.4949 19.183 18.2822C19.7529 18.0696 20.2705 17.7369 20.7006 17.3067L23.2461 14.7612C24.0188 13.9611 24.4465 12.8894 24.4368 11.7771C24.4271 10.6647 23.981 9.60069 23.1944 8.81411C22.4078 8.02753 21.3437 7.58136 20.2314 7.57169C19.119 7.56203 18.0474 7.98964 17.2473 8.76243L15.7879 10.2133" stroke="white" stroke-width="2" stroke-linecap="round" stroke-linejoin="round"/>
<path d="M17.697 15.1515C17.3326 14.6644 16.8677 14.2613 16.3338 13.9696C15.8 13.678 15.2096 13.5045 14.6029 13.461C13.9961 13.4176 13.387 13.5051 12.817 13.7178C12.2471 13.9304 11.7295 14.2631 11.2994 14.6933L8.75395 17.2388C7.98116 18.0389 7.55354 19.1106 7.56321 20.2229C7.57288 21.3353 8.01905 22.3993 8.80563 23.1859C9.59221 23.9725 10.6563 24.4186 11.7686 24.4283C12.881 24.438 13.9526 24.0104 14.7527 23.2376L16.2036 21.7867" stroke="white" stroke-width="2" stroke-linecap="round" stroke-linejoin="round"/>
</svg>
