<svg width="32" height="32" viewBox="0 0 32 32" fill="none" xmlns="http://www.w3.org/2000/svg">
<rect width="32" height="32" rx="5" fill="#11BB19"/>
<path fill-rule="evenodd" clip-rule="evenodd" d="M25.6 15.7521C25.6 10.5924 21.375 6.40015 16.175 6.40015C10.975 6.40015 6.74996 10.5924 6.74996 15.7521C6.74996 17.4513 7.21246 19.1257 8.09996 20.5769L6.39996 25.6001L11.6125 23.9381C13.0125 24.7071 14.5875 25.104 16.175 25.104C21.375 25.104 25.6 20.9118 25.6 15.7521ZM16.1754 23.5417C20.5004 23.5417 24.0254 20.044 24.0254 15.7525C24.0254 11.4611 20.5004 7.96338 16.1754 7.96338C11.8504 7.96338 8.32538 11.4611 8.32538 15.7525C8.32538 17.3897 8.85038 18.9897 9.82538 20.3169L8.83788 23.2068L11.8629 22.2518C13.1379 23.0828 14.6504 23.5417 16.1754 23.5417ZM18.7126 16.9675C18.9251 16.9675 20.9626 18.0218 21.0501 18.1706C21.0751 18.2327 21.0751 18.3071 21.0751 18.3567C21.0751 18.6668 20.9751 19.0141 20.8626 19.2993C20.5751 19.9939 19.4126 20.4404 18.7001 20.4404C18.1001 20.4404 16.8626 19.9195 16.3251 19.6714C14.5376 18.8652 13.4251 17.4885 12.3501 15.9133C11.8751 15.2187 11.4501 14.3629 11.4626 13.5071V13.4079C11.4876 12.5892 11.7876 12.0063 12.3876 11.4482C12.5751 11.2745 12.7751 11.1753 13.0376 11.1753C13.1111 11.1753 13.1846 11.1842 13.2596 11.1933C13.3376 11.2028 13.4172 11.2125 13.5001 11.2125C13.8376 11.2125 13.9001 11.3117 14.0251 11.6342C14.1126 11.8451 14.7501 13.5319 14.7501 13.6559C14.7501 13.921 14.4773 14.2057 14.2385 14.4549C14.0527 14.6487 13.8876 14.821 13.8876 14.9458C13.8876 15.0079 13.9126 15.0699 13.9501 15.1319C14.2251 15.7148 14.7501 16.3846 15.2251 16.8311C15.8001 17.3768 16.4126 17.7365 17.1126 18.0838C17.2001 18.1334 17.2876 18.1706 17.3876 18.1706C17.5818 18.1706 17.8431 17.848 18.095 17.5368C18.3295 17.2472 18.5559 16.9675 18.7126 16.9675Z" fill="white"/>
</svg>
