<svg width="32" height="32" viewBox="0 0 32 32" fill="none" xmlns="http://www.w3.org/2000/svg">
<rect width="31.9963" height="32" rx="5" fill="#F88585"/>
<path d="M27.9899 23.0136C28.0809 22.7678 17.6344 14.8799 17.6344 14.8799C16.3266 13.9148 15.6388 13.8996 14.3455 14.8799C14.3455 14.8799 3.91431 22.7614 4.00211 23.0039L4 23.0057C4.00108 23.0078 4.00281 23.0092 4.00427 23.0111C4.09272 23.2523 4.2214 23.4766 4.38484 23.6748C4.45389 23.7585 4.53709 23.8286 4.61711 23.9015L4.61322 23.9045C4.61959 23.9102 4.62808 23.9128 4.63445 23.9185C4.97359 24.221 5.40128 24.4169 5.87641 24.4729C5.88386 24.4737 5.88986 24.4776 5.89731 24.4785H5.926C5.99823 24.4854 6.06691 24.5028 6.14088 24.5028H25.8622C26.8333 24.5028 27.656 23.8921 27.9828 23.036C27.9867 23.0296 27.9927 23.025 27.9963 23.0185L27.9899 23.0136Z" fill="#AFC9DE"/>
<path d="M16.0042 13.9746L4.05493 22.9365V10.2405C4.05493 9.00298 5.05792 8 6.29542 8H25.7129C26.9504 8 27.9534 9.00298 27.9534 10.2405V22.9365L16.0042 13.9746Z" fill="#CBD9E8"/>
<path d="M4.19434 9.46144L14.3964 17.4747C15.6841 18.4249 16.3614 18.4399 17.6347 17.4747L27.8208 9.47415C27.6441 9.1538 27.3795 8.90072 27.0769 8.69893L27.217 8.58914C26.8751 8.27785 26.438 8.07605 25.9528 8.02393L6.05645 8.02463C5.5726 8.07605 5.13479 8.27855 4.79354 8.58914L4.93262 8.69757C4.63355 8.89655 4.37143 9.14527 4.19434 9.46144Z" fill="#EDECE6"/>
<path d="M4.1911 9.47841C4.10152 9.72052 14.387 17.4868 14.387 17.4868C15.6746 18.437 16.3519 18.452 17.6252 17.4868C17.6252 17.4868 27.8957 9.7268 27.8092 9.48802L27.8113 9.48628C27.8103 9.48418 27.8085 9.48282 27.8071 9.48089C27.7201 9.24349 27.5934 9.02256 27.4324 8.8275C27.3645 8.74505 27.2825 8.67605 27.2038 8.60424L27.2076 8.60129C27.2013 8.59571 27.193 8.59308 27.1867 8.5875C26.8528 8.28966 26.4317 8.09672 25.9639 8.04164C25.9566 8.04075 25.9507 8.03696 25.9433 8.03607H25.9151C25.844 8.02927 25.7764 8.01221 25.7035 8.01221H6.28603C5.32988 8.01221 4.51978 8.61352 4.19808 9.45638C4.19424 9.46266 4.18833 9.46721 4.18481 9.47363L4.1911 9.47841Z" fill="white"/>
</svg>
