<svg width="32" height="32" viewBox="0 0 32 32" fill="none" xmlns="http://www.w3.org/2000/svg">
<rect width="32" height="32" rx="5" fill="url(#paint0_linear_381_6230)"/>
<path d="M13.6479 23.1284C13.0759 23.1284 13.1731 22.9124 12.9758 22.3677L11.2938 16.832L24.2416 9.15057" fill="#CBD9E8"/>
<path d="M13.6479 23.1284C14.0894 23.1284 14.2843 22.9265 14.5308 22.687L16.8849 20.3979L13.9484 18.6271" fill="#AFC9DE"/>
<path d="M13.9481 18.6275L21.0635 23.8845C21.8756 24.3325 22.4615 24.1005 22.6638 23.1307L25.5601 9.48209C25.8566 8.29324 25.107 7.75385 24.3301 8.10653L7.32279 14.6645C6.16189 15.1301 6.16881 15.7778 7.11121 16.0664L11.4757 17.4287L21.5798 11.0541C22.0569 10.7648 22.4947 10.9202 22.1354 11.2392" fill="white"/>
<defs>
<linearGradient id="paint0_linear_381_6230" x1="16" y1="0" x2="16" y2="32" gradientUnits="userSpaceOnUse">
<stop stop-color="#2AABEE"/>
<stop offset="1" stop-color="#229ED9"/>
</linearGradient>
</defs>
</svg>
