<svg width="33" height="33" viewBox="0 0 33 33" fill="none" xmlns="http://www.w3.org/2000/svg">
<path d="M0.5 16.4727C0.5 7.6361 7.66344 0.472656 16.5 0.472656C25.3366 0.472656 32.5 7.6361 32.5 16.4727C32.5 25.3092 25.3366 32.4727 16.5 32.4727C7.66344 32.4727 0.5 25.3092 0.5 16.4727Z" fill="black"/>
<path d="M14.9984 14.773V14.1501C14.785 14.1216 14.568 14.1038 14.344 14.1038C11.673 14.1003 9.5 16.2751 9.5 18.9518C9.5 20.5928 10.318 22.0451 11.5699 22.9243C10.7626 22.0593 10.2682 20.8953 10.2682 19.621C10.2682 16.9834 12.3808 14.8335 14.9984 14.773Z" fill="#25F4EE"/>
<path d="M15.1157 21.835C16.3072 21.835 17.2816 20.8847 17.3243 19.7029L17.3279 9.14185H19.2555C19.2164 8.92471 19.195 8.70047 19.195 8.47266H16.5632L16.5597 19.0337C16.517 20.2155 15.5425 21.1659 14.3511 21.1659C13.9812 21.1659 13.6327 21.0733 13.3232 20.9096C13.7216 21.4684 14.376 21.835 15.1157 21.835Z" fill="#25F4EE"/>
<path d="M22.8584 12.7262V12.1389C22.1222 12.1389 21.4393 11.9218 20.8632 11.5444C21.3753 12.1318 22.0688 12.5589 22.8584 12.7262Z" fill="#25F4EE"/>
<path d="M20.8631 11.5445C20.3012 10.9002 19.9633 10.0602 19.9633 9.14185H19.2592C19.4405 10.1456 20.038 11.007 20.8631 11.5445Z" fill="#FE2C55"/>
<path d="M14.3475 16.7341C13.1276 16.7341 12.1354 17.7273 12.1354 18.9482C12.1354 19.7989 12.6191 20.5393 13.3232 20.9095C13.0601 20.5464 12.9036 20.1015 12.9036 19.6174C12.9036 18.3965 13.8958 17.4033 15.1158 17.4033C15.3434 17.4033 15.5638 17.4425 15.7701 17.5066V14.8156C15.5567 14.7871 15.3398 14.7693 15.1158 14.7693C15.0766 14.7693 15.041 14.7729 15.0019 14.7729V16.8374C14.7921 16.7733 14.5751 16.7341 14.3475 16.7341Z" fill="#FE2C55"/>
<path d="M22.8582 12.7263V14.773C21.4925 14.773 20.2264 14.3352 19.195 13.5948V18.9519C19.195 21.6251 17.022 23.8035 14.3475 23.8035C13.3161 23.8035 12.3558 23.476 11.5698 22.9243C12.4554 23.8747 13.718 24.4727 15.1157 24.4727C17.7866 24.4727 19.9632 22.2979 19.9632 19.6211V14.264C20.9946 15.0044 22.2607 15.4422 23.6264 15.4422V12.8082C23.3596 12.8082 23.1036 12.7797 22.8582 12.7263Z" fill="#FE2C55"/>
<path d="M19.195 18.9518V13.5948C20.2264 14.3352 21.4925 14.773 22.8583 14.773V12.7263C22.0687 12.559 21.3752 12.1318 20.8631 11.5445C20.0379 11.007 19.444 10.1456 19.2555 9.14185H17.3279L17.3243 19.7029C17.2816 20.8846 16.3071 21.835 15.1157 21.835C14.376 21.835 13.7251 21.4684 13.3197 20.9131C12.6155 20.5394 12.1318 19.8026 12.1318 18.9518C12.1318 17.7309 13.1241 16.7378 14.3439 16.7378C14.5716 16.7378 14.7921 16.777 14.9984 16.841V14.7765C12.3808 14.8335 10.2682 16.9834 10.2682 19.621C10.2682 20.8953 10.7625 22.0558 11.5699 22.9243C12.3559 23.476 13.3161 23.8035 14.3475 23.8035C17.0185 23.8035 19.195 21.625 19.195 18.9518Z" fill="white"/>
</svg>
