<svg width="33" height="33" viewBox="0 0 33 33" fill="none" xmlns="http://www.w3.org/2000/svg">
<path d="M0.5 16.4727C0.5 25.3092 7.66344 32.4727 16.5 32.4727C25.3366 32.4727 32.5 25.3092 32.5 16.4727C32.5 7.6361 25.3366 0.472656 16.5 0.472656C7.66344 0.472656 0.5 7.6361 0.5 16.4727Z" fill="#1DA1F2"/>
<path d="M24.5 11.4727C23.9 11.7727 23.3 11.8727 22.6 11.9727C23.3 11.5727 23.8 10.9727 24 10.1727C23.4 10.5727 22.7 10.7727 21.9 10.9727C21.3 10.3727 20.4 9.97266 19.5 9.97266C17.4 9.97266 15.8 11.9727 16.3 13.9727C13.6 13.8727 11.2 12.5727 9.5 10.5727C8.6 12.0727 9.1 13.9727 10.5 14.9727C10 14.9727 9.5 14.7727 9 14.5727C9 16.0727 10.1 17.4727 11.6 17.8727C11.1 17.9727 10.6 18.0727 10.1 17.9727C10.5 19.2727 11.7 20.2727 13.2 20.2727C12 21.1727 10.2 21.6727 8.5 21.4727C10 22.3727 11.7 22.9727 13.5 22.9727C19.6 22.9727 23 17.8727 22.8 13.1727C23.5 12.7727 24.1 12.1727 24.5 11.4727Z" fill="white"/>
</svg>
