<svg width="33" height="33" viewBox="0 0 33 33" fill="none" xmlns="http://www.w3.org/2000/svg">
<path d="M0.5 16.4727C0.5 25.3092 7.66344 32.4727 16.5 32.4727C25.3366 32.4727 32.5 25.3092 32.5 16.4727C32.5 7.6361 25.3366 0.472656 16.5 0.472656C7.66344 0.472656 0.5 7.6361 0.5 16.4727Z" fill="#FF0000"/>
<path d="M24.1 12.5726C23.9 11.8726 23.4 11.3726 22.7 11.1726C21.5 10.8726 16.4 10.8726 16.4 10.8726C16.4 10.8726 11.4 10.8726 10.1 11.1726C9.40001 11.3726 8.9 11.8726 8.7 12.5726C8.5 13.8726 8.5 16.4726 8.5 16.4726C8.5 16.4726 8.5 19.0726 8.8 20.3726C9 21.0726 9.5 21.5726 10.2 21.7726C11.4 22.0726 16.5 22.0726 16.5 22.0726C16.5 22.0726 21.5 22.0726 22.8 21.7726C23.5 21.5726 24 21.0726 24.2 20.3726C24.5 19.0726 24.5 16.4726 24.5 16.4726C24.5 16.4726 24.5 13.8726 24.1 12.5726ZM14.9 18.8726V14.0726L19.1 16.4726L14.9 18.8726Z" fill="white"/>
</svg>
